<svg width="540" height="187" viewBox="0 0 540 187" fill="none" xmlns="http://www.w3.org/2000/svg">
<path d="M530.308 0H9.68535C4.33596 0 0 4.34048 0 9.69544V177.298C0 182.653 4.33596 186.994 9.68535 186.994H530.308C535.658 186.994 539.994 182.653 539.994 177.298V9.69544C540 4.34048 535.664 0 530.308 0Z" fill="#273B7E"/>
<path d="M174.221 0L229.511 187H208.299L196.395 146.446H140.149L129.065 187H74.5964L126.596 0H174.221ZM167.236 44.7981L145.203 127.678H191.052L167.236 44.7981Z" fill="white"/>
<path d="M221.519 56.4326H236.22C242.589 56.4326 247.772 57.293 251.761 59.0074C255.751 60.7217 258.945 63.8936 261.344 68.5102C263.743 73.1268 264.943 79.3678 264.943 87.2333C264.943 92.8194 264.211 97.7827 262.755 102.11C261.299 106.438 259.388 109.847 257.021 112.339C254.654 114.83 251.986 116.499 249.01 117.353C246.034 118.207 242.32 118.631 237.856 118.631H221.519V56.4326ZM235.175 67.0912V107.96H237.503C240.665 107.96 243.115 107.35 244.853 106.136C246.585 104.923 247.971 102.797 249.01 99.7732C250.042 96.749 250.562 92.3764 250.562 86.6618C250.562 81.3711 249.991 77.2939 248.849 74.4366C247.708 71.5793 246.277 69.6402 244.558 68.6193C242.839 67.5984 240.485 67.0912 237.503 67.0912H235.175Z" fill="white"/>
<path d="M273.903 56.4326H287.559V118.625H273.903V56.4326Z" fill="white"/>
<path d="M342.175 87.5026C342.175 108.884 334.664 119.581 319.642 119.581C312.176 119.581 306.551 116.852 302.754 111.401C298.963 105.95 297.064 97.9814 297.064 87.5026C297.064 66.147 304.575 55.4756 319.597 55.4756C326.941 55.4756 332.541 58.1466 336.39 63.4952C340.251 68.8373 342.175 76.8441 342.175 87.5026ZM327.795 87.5026C327.795 79.117 327.14 73.5374 325.838 70.7571C324.536 67.9769 322.452 66.59 319.604 66.59C316.782 66.59 314.716 67.9898 313.414 70.7828C312.112 73.5759 311.458 79.1492 311.458 87.5026C311.458 95.702 312.099 101.25 313.395 104.133C314.684 107.022 316.756 108.46 319.61 108.46C322.432 108.46 324.504 107.08 325.825 104.312C327.134 101.551 327.795 95.946 327.795 87.5026Z" fill="white"/>
<path d="M351.187 56.4326H366.344L382.321 95.0667V56.4326H392.879V118.625H380.679L361.745 73.6083V118.625H351.187V56.4326Z" fill="white"/>
<path d="M416.823 56.4326H430.569L448.316 118.625H434.353L431.255 105.777H413.757L410.71 118.625H398.164L416.823 56.4326ZM428.683 95.1116L422.403 69.6338L416.38 95.1116H428.683Z" fill="white"/>
<path d="M474.159 146.446H13.9187L22.597 127.678H465.481L474.159 146.446Z" fill="white"/>
<path d="M27.6321 127.678H191.052H526.081L516.678 146.446H196.388H140.143H37.0288L27.6321 127.678Z" fill="white"/>
</svg>
