<svg width="1441" height="2036" viewBox="0 0 1441 2036" fill="none" xmlns="http://www.w3.org/2000/svg">
<rect width="1440.02" height="2036" fill="#3D9365"/>
<path d="M90.0332 0.0483674C90.0574 27.8354 112.554 45.7555 135.05 63.6514C157.546 45.7555 180.042 27.8354 180.042 0H90.0574H0.0241699V0.0241837C0.0483594 27.8354 22.5446 45.7313 45.0408 63.6514C67.537 45.7555 90.009 27.8354 90.0332 0.0483674Z" fill="#348C58"/>
<path d="M45.0408 190.93C68.1418 172.526 90.0332 154.389 90.0332 125.828C90.0332 98.7661 66.9081 81.0636 45.0408 63.6514C21.9398 82.0551 0.0483594 100.169 0.0241699 128.73V128.778C0.0483594 155.84 23.1977 173.518 45.0408 190.93Z" fill="#348C58"/>
<path d="M45.0408 318.233C68.1418 299.829 90.0332 281.691 90.0332 253.13C90.0332 226.069 66.9081 208.366 45.0408 190.954C21.9398 209.334 0.0483594 227.447 0.0241699 256.032V256.081C0.0483594 283.118 23.1977 300.796 45.0408 318.233Z" fill="#348C58"/>
<path d="M45.0408 318.233C21.964 336.637 0.0483594 354.75 0.0241699 383.311V383.36C0.0483594 410.421 23.1735 428.099 45.0408 445.512C68.1418 427.108 90.0332 408.97 90.0332 380.409C90.0332 353.348 66.9081 335.645 45.0408 318.233Z" fill="#348C58"/>
<path d="M0.0241699 510.638C0.0483594 537.7 23.1735 555.378 45.0408 572.79C68.1418 554.387 90.0332 536.249 90.0332 507.688C90.0332 480.626 66.9081 462.924 45.0408 445.512C21.9398 463.916 0.0483594 482.029 0.0241699 510.59V510.638Z" fill="#348C58"/>
<path d="M0.0241699 637.941C0.0483594 665.003 23.1735 682.681 45.0408 700.093C68.1418 681.689 90.0332 663.552 90.0332 634.991C90.0332 607.929 66.9081 590.227 45.0408 572.814C21.9398 591.218 0.0483594 609.332 0.0241699 637.893V637.941Z" fill="#348C58"/>
<path d="M45.0408 827.396C68.1418 808.993 90.0332 790.855 90.0332 762.294C90.0332 735.232 66.9081 717.53 45.0408 700.118C21.9398 718.497 0.0483594 736.611 0.0241699 765.172V765.22C0.0483594 792.282 23.1735 809.96 45.0408 827.396Z" fill="#348C58"/>
<path d="M45.0408 827.396C21.9398 845.8 0.0483594 863.914 0.0241699 892.475V892.523C0.0483594 919.585 23.1735 937.263 45.0408 954.675C68.1418 936.271 90.0332 918.134 90.0332 889.573C90.0332 862.511 66.9081 844.809 45.0408 827.396Z" fill="#348C58"/>
<path d="M45.0408 954.675C21.9398 973.079 0.0483594 991.192 0.0241699 1019.75V1019.8C0.0483594 1046.86 23.1735 1064.54 45.0408 1081.95C68.1418 1063.55 90.0332 1045.41 90.0332 1016.85C90.0332 989.789 66.9081 972.111 45.0408 954.675Z" fill="#348C58"/>
<path d="M45.0408 1081.98C21.9398 1100.38 0.0483594 1118.5 0.0241699 1147.06V1147.1C0.0483594 1174.17 23.1735 1191.84 45.0408 1209.26C68.1418 1190.85 90.0332 1172.72 90.0332 1144.15C90.0332 1117.07 66.9081 1099.39 45.0408 1081.98Z" fill="#348C58"/>
<path d="M45.0408 1336.54C68.1418 1318.13 90.0332 1299.99 90.0332 1271.43C90.0332 1244.37 66.9081 1226.67 45.0408 1209.26C21.9398 1227.66 0.0483594 1245.77 0.0241699 1274.34V1274.38C0.0483594 1301.45 23.1735 1319.12 45.0408 1336.54Z" fill="#348C58"/>
<path d="M45.0408 1336.54C21.9398 1354.94 0.0483594 1373.05 0.0241699 1401.61V1401.66C0.0483594 1428.72 23.1735 1446.4 45.0408 1463.81C68.1418 1445.41 90.0332 1427.27 90.0332 1398.71C90.0332 1371.65 66.9081 1353.97 45.0408 1336.54Z" fill="#348C58"/>
<path d="M45.0408 1463.84C21.9398 1482.24 0.0483594 1500.36 0.0241699 1528.92V1528.97C0.0483594 1555.93 23.0284 1573.58 44.8473 1590.97C21.8189 1609.33 0.0483594 1627.42 0.0241699 1655.91V1655.95C0.0483594 1683.02 23.1735 1700.69 45.0408 1718.11C68.1418 1699.7 90.0332 1681.56 90.0332 1653C90.0332 1626.01 67.0532 1608.36 45.2585 1591C68.2869 1572.64 90.0332 1554.55 90.0332 1526.04C90.0332 1498.95 66.9081 1481.27 45.0408 1463.84Z" fill="#348C58"/>
<path d="M45.0408 1845.38C68.1418 1826.98 90.0332 1808.84 90.0332 1780.28C90.0332 1753.22 66.9081 1735.52 45.0408 1718.11C21.9398 1736.51 0.0483594 1754.62 0.0241699 1783.18V1783.23C0.0483594 1810.27 23.1735 1827.97 45.0408 1845.38Z" fill="#348C58"/>
<path d="M90.0332 128.73V128.778C90.0574 155.84 113.183 173.518 135.05 190.93C158.151 172.526 180.042 154.389 180.042 125.828C180.042 98.7661 156.917 81.0636 135.05 63.6514C111.949 82.0551 90.0332 100.169 90.0332 128.73Z" fill="#348C58"/>
<path d="M135.026 318.233C158.127 299.829 180.018 281.691 180.018 253.13C180.018 226.069 156.893 208.366 135.026 190.954C111.925 209.358 90.0332 227.471 90.009 256.032V256.081C90.0332 283.118 113.183 300.796 135.026 318.233Z" fill="#348C58"/>
<path d="M135.05 318.233C111.949 336.637 90.0574 354.75 90.0332 383.311V383.36C90.0574 410.421 113.183 428.099 135.05 445.512C158.151 427.108 180.042 408.97 180.042 380.409C180.018 353.348 156.893 335.645 135.05 318.233Z" fill="#348C58"/>
<path d="M135.026 445.512C111.925 463.916 90.0332 482.029 90.009 510.59V510.638C90.0332 537.7 113.158 555.378 135.026 572.79C158.127 554.387 180.018 536.249 180.018 507.688C180.018 480.626 156.893 462.948 135.026 445.512Z" fill="#348C58"/>
<path d="M135.026 572.814C111.925 591.218 90.0332 609.332 90.009 637.893V637.941C90.0332 665.003 113.158 682.681 135.026 700.093C158.127 681.689 180.018 663.552 180.018 634.991C180.018 607.929 156.893 590.227 135.026 572.814Z" fill="#348C58"/>
<path d="M135.026 827.396C158.127 808.993 180.018 790.855 180.018 762.294C180.018 735.232 156.893 717.53 135.026 700.118C111.925 718.521 90.0332 736.635 90.009 765.196V765.244C90.0332 792.282 113.183 809.96 135.026 827.396Z" fill="#348C58"/>
<path d="M135.05 827.396C111.949 845.8 90.0574 863.914 90.0332 892.475V892.523C90.0574 919.585 113.183 937.263 135.05 954.675C158.151 936.271 180.042 918.134 180.042 889.573C180.018 862.511 156.893 844.809 135.05 827.396Z" fill="#348C58"/>
<path d="M135.026 954.675C111.925 973.079 90.0332 991.192 90.009 1019.75V1019.8C90.0332 1046.86 113.158 1064.54 135.026 1081.95C158.127 1063.55 180.018 1045.41 180.018 1016.85C180.018 989.789 156.893 972.111 135.026 954.675Z" fill="#348C58"/>
<path d="M135.026 1081.98C111.925 1100.38 90.0332 1118.5 90.009 1147.06V1147.1C90.0332 1174.17 113.158 1191.84 135.026 1209.26C158.127 1190.85 180.018 1172.72 180.018 1144.15C180.018 1117.07 156.893 1099.39 135.026 1081.98Z" fill="#348C58"/>
<path d="M135.026 1336.54C158.127 1318.13 180.018 1299.99 180.018 1271.43C180.018 1244.37 156.893 1226.67 135.026 1209.26C111.925 1227.66 90.0332 1245.77 90.009 1274.34V1274.38C90.0332 1301.45 113.183 1319.12 135.026 1336.54Z" fill="#348C58"/>
<path d="M135.026 1336.54C111.925 1354.94 90.0332 1373.05 90.009 1401.61V1401.66C90.0332 1428.72 113.158 1446.4 135.026 1463.81C158.127 1445.41 180.018 1427.27 180.018 1398.71C180.018 1371.65 156.893 1353.97 135.026 1336.54Z" fill="#348C58"/>
<path d="M180.018 1526.01C180.018 1498.95 156.893 1481.25 135.026 1463.84C111.925 1482.24 90.0332 1500.36 90.009 1528.92V1528.97C90.0332 1555.93 113.013 1573.58 134.832 1590.97C111.804 1609.33 90.0332 1627.42 90.009 1655.91V1655.95C90.0332 1683.02 113.158 1700.69 135.026 1718.11C158.127 1699.7 180.018 1681.56 180.018 1653C180.018 1626.01 157.038 1608.36 135.243 1591C158.272 1572.62 180.018 1554.5 180.018 1526.01Z" fill="#348C58"/>
<path d="M135.026 1718.11C111.925 1736.51 90.0332 1754.62 90.009 1783.18V1783.23C90.0332 1810.29 113.158 1827.97 135.026 1845.38C158.127 1826.98 180.018 1808.84 180.018 1780.28C180.018 1753.22 156.893 1735.52 135.026 1718.11Z" fill="#348C58"/>
<path d="M135.219 1972.52C158.248 1954.16 180.018 1936.05 180.018 1907.56C180.018 1880.5 156.893 1862.8 135.026 1845.38C111.925 1863.79 90.0333 1881.9 90.0091 1910.46V1910.51C90.0333 1937.48 113.013 1955.13 134.808 1972.49C112.384 1990.34 90.0333 2008.21 90.0091 2035.95C89.9849 2008.24 67.6338 1990.37 45.2101 1972.52C68.2385 1954.16 90.0091 1936.05 90.0091 1907.56C90.0091 1880.5 66.8839 1862.8 45.0166 1845.38C21.9157 1863.79 0.0241895 1881.9 0 1910.46V1910.51C0.0241895 1937.48 23.0042 1955.13 44.7989 1972.49C22.3995 1990.37 0.0241895 2008.26 0.0241895 2036H90.0091H179.994V2035.98C179.994 2008.26 157.643 1990.39 135.219 1972.52Z" fill="#348C58"/>
<path d="M270.027 0H180.042V0.0241837C180.066 27.8354 202.563 45.7313 225.059 63.6514C247.531 45.7313 270.027 27.8354 270.027 0Z" fill="#348C58"/>
<path d="M225.035 190.93C248.136 172.526 270.027 154.389 270.027 125.828C270.027 98.7661 246.902 81.0636 225.035 63.6514C201.934 82.0551 180.042 100.169 180.018 128.73V128.778C180.042 155.84 203.192 173.518 225.035 190.93Z" fill="#348C58"/>
<path d="M225.035 318.233C248.136 299.829 270.027 281.691 270.027 253.13C270.027 226.069 246.902 208.366 225.035 190.954C201.934 209.358 180.042 227.471 180.018 256.032V256.081C180.042 283.118 203.192 300.796 225.035 318.233Z" fill="#348C58"/>
<path d="M225.035 318.233C201.934 336.637 180.042 354.75 180.018 383.311V383.36C180.042 410.421 203.167 428.099 225.035 445.512C248.136 427.108 270.027 408.97 270.027 380.409C270.027 353.348 246.902 335.645 225.035 318.233Z" fill="#348C58"/>
<path d="M180.018 510.638C180.042 537.7 203.167 555.378 225.035 572.79C248.136 554.387 270.027 536.249 270.027 507.688C270.027 480.626 246.902 462.924 225.035 445.512C201.934 463.916 180.042 482.029 180.018 510.59V510.638Z" fill="#348C58"/>
<path d="M180.018 637.941C180.042 665.003 203.167 682.681 225.035 700.093C248.136 681.689 270.027 663.552 270.027 634.991C270.027 607.929 246.902 590.227 225.035 572.814C201.934 591.218 180.042 609.332 180.018 637.893V637.941Z" fill="#348C58"/>
<path d="M225.035 827.396C248.136 808.993 270.027 790.855 270.027 762.294C270.027 735.232 246.902 717.53 225.035 700.118C201.934 718.521 180.042 736.635 180.018 765.196V765.244C180.042 792.282 203.192 809.96 225.035 827.396Z" fill="#348C58"/>
<path d="M225.035 827.396C201.934 845.8 180.042 863.914 180.018 892.475V892.523C180.042 919.585 203.167 937.263 225.035 954.675C248.136 936.271 270.027 918.134 270.027 889.573C270.027 862.511 246.902 844.809 225.035 827.396Z" fill="#348C58"/>
<path d="M225.035 954.675C201.934 973.079 180.042 991.192 180.018 1019.75V1019.8C180.042 1046.86 203.167 1064.54 225.035 1081.95C248.136 1063.55 270.027 1045.41 270.027 1016.85C270.027 989.789 246.902 972.111 225.035 954.675Z" fill="#348C58"/>
<path d="M225.035 1081.98C201.934 1100.38 180.042 1118.5 180.018 1147.06V1147.1C180.042 1174.17 203.167 1191.84 225.035 1209.26C248.136 1190.85 270.027 1172.72 270.027 1144.15C270.027 1117.07 246.902 1099.39 225.035 1081.98Z" fill="#348C58"/>
<path d="M225.035 1336.54C248.136 1318.13 270.027 1299.99 270.027 1271.43C270.027 1244.37 246.902 1226.67 225.035 1209.26C201.934 1227.66 180.042 1245.77 180.018 1274.34V1274.38C180.042 1301.45 203.167 1319.12 225.035 1336.54Z" fill="#348C58"/>
<path d="M225.035 1336.54C201.934 1354.94 180.042 1373.05 180.018 1401.61V1401.66C180.042 1428.72 203.167 1446.4 225.035 1463.81C248.136 1445.41 270.027 1427.27 270.027 1398.71C270.027 1371.65 246.902 1353.97 225.035 1336.54Z" fill="#348C58"/>
<path d="M225.035 1463.84C201.934 1482.24 180.042 1500.36 180.018 1528.92V1528.97C180.042 1555.93 203.022 1573.58 224.841 1590.97C201.813 1609.33 180.042 1627.42 180.018 1655.91V1655.95C180.042 1683.02 203.167 1700.69 225.035 1718.11C248.136 1699.7 270.027 1681.56 270.027 1653C270.027 1626.01 247.047 1608.36 225.252 1591C248.281 1572.64 270.027 1554.55 270.027 1526.04C270.027 1498.95 246.902 1481.27 225.035 1463.84Z" fill="#348C58"/>
<path d="M225.035 1845.38C248.136 1826.98 270.027 1808.84 270.027 1780.28C270.027 1753.22 246.902 1735.52 225.035 1718.11C201.934 1736.51 180.042 1754.62 180.018 1783.18V1783.23C180.042 1810.27 203.167 1827.97 225.035 1845.38Z" fill="#348C58"/>
<path d="M225.228 1972.52C248.257 1954.16 270.027 1936.05 270.027 1907.56C270.027 1880.5 246.902 1862.8 225.035 1845.38C201.934 1863.79 180.042 1881.9 180.018 1910.46V1910.51C180.042 1937.48 203.022 1955.13 224.817 1972.49C202.393 1990.34 180.018 2008.24 180.018 2036H270.003V2035.98C270.003 2008.26 247.652 1990.39 225.228 1972.52Z" fill="#348C58"/>
<path d="M315.044 63.6514C337.54 45.7555 360.036 27.8354 360.036 0H270.051V0.0241837C270.027 27.8354 292.548 45.7313 315.044 63.6514Z" fill="#348C58"/>
<path d="M270.027 128.73V128.778C270.052 155.84 293.177 173.518 315.044 190.93C338.145 172.526 360.036 154.389 360.036 125.828C360.036 98.7661 336.911 81.0636 315.044 63.6514C291.943 82.0551 270.027 100.169 270.027 128.73Z" fill="#348C58"/>
<path d="M315.044 318.233C338.145 299.829 360.036 281.691 360.036 253.13C360.036 226.069 336.911 208.366 315.044 190.954C291.943 209.358 270.052 227.471 270.027 256.032V256.081C270.027 283.118 293.177 300.796 315.044 318.233Z" fill="#348C58"/>
<path d="M315.044 318.233C291.943 336.637 270.052 354.75 270.027 383.311V383.36C270.052 410.421 293.177 428.099 315.044 445.512C338.145 427.108 360.036 408.97 360.036 380.409C360.012 353.348 336.911 335.645 315.044 318.233Z" fill="#348C58"/>
<path d="M315.044 445.512C291.943 463.916 270.052 482.029 270.027 510.59V510.638C270.052 537.7 293.177 555.378 315.044 572.79C338.145 554.387 360.036 536.249 360.036 507.688C360.012 480.626 336.911 462.948 315.044 445.512Z" fill="#348C58"/>
<path d="M315.044 572.814C291.943 591.218 270.052 609.332 270.027 637.893V637.941C270.052 665.003 293.177 682.681 315.044 700.093C338.145 681.689 360.036 663.552 360.036 634.991C360.012 607.929 336.911 590.227 315.044 572.814Z" fill="#348C58"/>
<path d="M315.044 827.396C338.145 808.993 360.036 790.855 360.036 762.294C360.036 735.232 336.911 717.53 315.044 700.118C291.943 718.521 270.052 736.635 270.027 765.196V765.244C270.027 792.282 293.177 809.96 315.044 827.396Z" fill="#348C58"/>
<path d="M315.044 827.396C291.943 845.8 270.052 863.914 270.027 892.475V892.523C270.052 919.585 293.177 937.263 315.044 954.675C338.145 936.271 360.036 918.134 360.036 889.573C360.012 862.511 336.911 844.809 315.044 827.396Z" fill="#348C58"/>
<path d="M315.044 954.675C291.943 973.079 270.052 991.192 270.027 1019.75V1019.8C270.052 1046.86 293.177 1064.54 315.044 1081.95C338.145 1063.55 360.036 1045.41 360.036 1016.85C360.012 989.789 336.911 972.111 315.044 954.675Z" fill="#348C58"/>
<path d="M315.044 1081.98C291.943 1100.38 270.052 1118.5 270.027 1147.06V1147.1C270.052 1174.17 293.177 1191.84 315.044 1209.26C338.145 1190.85 360.036 1172.72 360.036 1144.15C360.012 1117.07 336.911 1099.39 315.044 1081.98Z" fill="#348C58"/>
<path d="M315.044 1336.54C338.145 1318.13 360.036 1299.99 360.036 1271.43C360.036 1244.37 336.911 1226.67 315.044 1209.26C291.943 1227.66 270.052 1245.77 270.027 1274.34V1274.38C270.027 1301.45 293.177 1319.12 315.044 1336.54Z" fill="#348C58"/>
<path d="M315.044 1336.54C291.943 1354.94 270.052 1373.05 270.027 1401.61V1401.66C270.052 1428.72 293.177 1446.4 315.044 1463.81C338.145 1445.41 360.036 1427.27 360.036 1398.71C360.012 1371.65 336.911 1353.97 315.044 1336.54Z" fill="#348C58"/>
<path d="M360.012 1526.01C360.012 1498.95 336.887 1481.25 315.02 1463.84C291.919 1482.24 270.027 1500.36 270.003 1528.92V1528.97C270.027 1555.93 293.007 1573.58 314.826 1590.97C291.798 1609.33 270.027 1627.42 270.003 1655.91V1655.95C270.027 1683.02 293.152 1700.69 315.02 1718.11C338.121 1699.7 360.012 1681.56 360.012 1653C360.012 1626.01 337.032 1608.36 315.237 1591C338.266 1572.62 360.012 1554.5 360.012 1526.01Z" fill="#348C58"/>
<path d="M315.02 1718.11C291.919 1736.51 270.027 1754.62 270.003 1783.18V1783.23C270.027 1810.29 293.152 1827.97 315.02 1845.38C338.121 1826.98 360.012 1808.84 360.012 1780.28C360.012 1753.22 336.887 1735.52 315.02 1718.11Z" fill="#348C58"/>
<path d="M315.213 1972.52C338.241 1954.16 360.012 1936.05 360.012 1907.56C360.012 1880.5 336.887 1862.8 315.02 1845.38C291.919 1863.79 270.027 1881.9 270.003 1910.46V1910.51C270.027 1937.48 293.007 1955.13 314.802 1972.49C292.378 1990.34 270.003 2008.24 270.003 2036H359.988V2035.98C360.012 2008.26 337.637 1990.39 315.213 1972.52Z" fill="#348C58"/>
<path d="M450.021 0H360.036V0.0241837C360.061 27.8354 382.557 45.7313 405.053 63.6514C427.525 45.7313 450.021 27.8354 450.021 0Z" fill="#348C58"/>
<path d="M405.053 190.93C428.154 172.526 450.045 154.389 450.045 125.828C450.045 98.7661 426.92 81.0636 405.053 63.6514C381.952 82.0551 360.061 100.169 360.036 128.73V128.778C360.036 155.84 383.186 173.518 405.053 190.93Z" fill="#348C58"/>
<path d="M405.029 318.233C428.13 299.829 450.021 281.691 450.021 253.13C450.021 226.069 426.896 208.366 405.029 190.954C381.928 209.358 360.036 227.471 360.012 256.032V256.081C360.036 283.118 383.186 300.796 405.029 318.233Z" fill="#348C58"/>
<path d="M405.053 318.233C381.952 336.637 360.061 354.75 360.036 383.311V383.36C360.061 410.421 383.186 428.099 405.053 445.512C428.154 427.108 450.045 408.97 450.045 380.409C450.021 353.348 426.896 335.645 405.053 318.233Z" fill="#348C58"/>
<path d="M360.036 510.638C360.061 537.7 383.186 555.378 405.053 572.79C428.154 554.387 450.045 536.249 450.045 507.688C450.045 480.626 426.92 462.924 405.053 445.512C381.952 463.916 360.061 482.029 360.036 510.59V510.638Z" fill="#348C58"/>
<path d="M360.036 637.941C360.061 665.003 383.186 682.681 405.053 700.093C428.154 681.689 450.045 663.552 450.045 634.991C450.045 607.929 426.92 590.227 405.053 572.814C381.952 591.218 360.061 609.332 360.036 637.893V637.941Z" fill="#348C58"/>
<path d="M405.029 827.396C428.13 808.993 450.021 790.855 450.021 762.294C450.021 735.232 426.896 717.53 405.029 700.118C381.928 718.521 360.036 736.635 360.012 765.196V765.244C360.036 792.282 383.186 809.96 405.029 827.396Z" fill="#348C58"/>
<path d="M405.053 827.396C381.952 845.8 360.061 863.914 360.036 892.475V892.523C360.061 919.585 383.186 937.263 405.053 954.675C428.154 936.271 450.045 918.134 450.045 889.573C450.021 862.511 426.896 844.809 405.053 827.396Z" fill="#348C58"/>
<path d="M405.029 954.675C381.928 973.079 360.036 991.192 360.012 1019.75V1019.8C360.036 1046.86 383.162 1064.54 405.029 1081.95C428.13 1063.55 450.021 1045.41 450.021 1016.85C450.021 989.789 426.896 972.111 405.029 954.675Z" fill="#348C58"/>
<path d="M405.029 1081.98C381.928 1100.38 360.036 1118.5 360.012 1147.06V1147.1C360.036 1174.17 383.162 1191.84 405.029 1209.26C428.13 1190.85 450.021 1172.72 450.021 1144.15C450.021 1117.07 426.896 1099.39 405.029 1081.98Z" fill="#348C58"/>
<path d="M405.029 1336.54C428.13 1318.13 450.021 1299.99 450.021 1271.43C450.021 1244.37 426.896 1226.67 405.029 1209.26C381.928 1227.66 360.036 1245.77 360.012 1274.34V1274.38C360.036 1301.45 383.186 1319.12 405.029 1336.54Z" fill="#348C58"/>
<path d="M405.029 1336.54C381.928 1354.94 360.036 1373.05 360.012 1401.61V1401.66C360.036 1428.72 383.162 1446.4 405.029 1463.81C428.13 1445.41 450.021 1427.27 450.021 1398.71C450.021 1371.65 426.896 1353.97 405.029 1336.54Z" fill="#348C58"/>
<path d="M405.029 1463.84C381.928 1482.24 360.036 1500.36 360.012 1528.92V1528.97C360.036 1555.93 383.016 1573.58 404.835 1590.97C381.807 1609.33 360.036 1627.42 360.012 1655.91V1655.95C360.036 1683.02 383.162 1700.69 405.029 1718.11C428.13 1699.7 450.021 1681.56 450.021 1653C450.021 1626.01 427.041 1608.36 405.247 1591C428.275 1572.64 450.021 1554.55 450.021 1526.04C450.021 1498.95 426.896 1481.27 405.029 1463.84Z" fill="#348C58"/>
<path d="M405.029 1845.38C428.13 1826.98 450.021 1808.84 450.021 1780.28C450.021 1753.22 426.896 1735.52 405.029 1718.11C381.928 1736.51 360.036 1754.62 360.012 1783.18V1783.23C360.036 1810.27 383.186 1827.97 405.029 1845.38Z" fill="#348C58"/>
<path d="M405.222 1972.52C428.251 1954.16 450.021 1936.05 450.021 1907.56C450.021 1880.5 426.896 1862.8 405.029 1845.38C381.928 1863.79 360.036 1881.9 360.012 1910.46V1910.51C360.036 1937.48 383.016 1955.13 404.811 1972.49C382.387 1990.34 360.012 2008.24 360.012 2036H449.997V2035.98C450.021 2008.26 427.646 1990.39 405.222 1972.52Z" fill="#348C58"/>
<path d="M495.038 63.6514C517.534 45.7555 540.03 27.8354 540.03 0H450.045V0.0241837C450.045 27.8354 472.542 45.7313 495.038 63.6514Z" fill="#348C58"/>
<path d="M450.021 128.73V128.778C450.045 155.84 473.171 173.518 495.038 190.93C518.139 172.526 540.03 154.389 540.03 125.828C540.03 98.7661 516.905 81.0636 495.038 63.6514C471.937 82.0551 450.045 100.169 450.021 128.73Z" fill="#348C58"/>
<path d="M495.038 318.233C518.139 299.829 540.03 281.691 540.03 253.13C540.03 226.069 516.905 208.366 495.038 190.954C471.937 209.358 450.045 227.471 450.021 256.032V256.081C450.045 283.118 473.171 300.796 495.038 318.233Z" fill="#348C58"/>
<path d="M495.038 318.233C471.937 336.637 450.045 354.75 450.021 383.311V383.36C450.045 410.421 473.171 428.099 495.038 445.512C518.139 427.108 540.03 408.97 540.03 380.409C540.03 353.348 516.905 335.645 495.038 318.233Z" fill="#348C58"/>
<path d="M495.038 445.512C471.937 463.916 450.045 482.029 450.021 510.59V510.638C450.045 537.7 473.171 555.378 495.038 572.79C518.139 554.387 540.03 536.249 540.03 507.688C540.03 480.626 516.905 462.948 495.038 445.512Z" fill="#348C58"/>
<path d="M495.038 572.814C471.937 591.218 450.045 609.332 450.021 637.893V637.941C450.045 665.003 473.171 682.681 495.038 700.093C518.139 681.689 540.03 663.552 540.03 634.991C540.03 607.929 516.905 590.227 495.038 572.814Z" fill="#348C58"/>
<path d="M495.038 827.396C518.139 808.993 540.03 790.855 540.03 762.294C540.03 735.232 516.905 717.53 495.038 700.118C471.937 718.521 450.045 736.635 450.021 765.196V765.244C450.045 792.282 473.171 809.96 495.038 827.396Z" fill="#348C58"/>
<path d="M495.038 827.396C471.937 845.8 450.045 863.914 450.021 892.475V892.523C450.045 919.585 473.171 937.263 495.038 954.675C518.139 936.271 540.03 918.134 540.03 889.573C540.03 862.511 516.905 844.809 495.038 827.396Z" fill="#348C58"/>
<path d="M495.038 954.675C471.937 973.079 450.045 991.192 450.021 1019.75V1019.8C450.045 1046.86 473.171 1064.54 495.038 1081.95C518.139 1063.55 540.03 1045.41 540.03 1016.85C540.03 989.789 516.905 972.111 495.038 954.675Z" fill="#348C58"/>
<path d="M495.038 1081.98C471.937 1100.38 450.045 1118.5 450.021 1147.06V1147.1C450.045 1174.17 473.171 1191.84 495.038 1209.26C518.139 1190.85 540.03 1172.72 540.03 1144.15C540.006 1117.07 516.905 1099.39 495.038 1081.98Z" fill="#348C58"/>
<path d="M495.038 1336.54C518.139 1318.13 540.03 1299.99 540.03 1271.43C540.03 1244.37 516.905 1226.67 495.038 1209.26C471.937 1227.66 450.045 1245.77 450.021 1274.34V1274.38C450.021 1301.45 473.171 1319.12 495.038 1336.54Z" fill="#348C58"/>
<path d="M495.038 1336.54C471.937 1354.94 450.045 1373.05 450.021 1401.61V1401.66C450.045 1428.72 473.171 1446.4 495.038 1463.81C518.139 1445.41 540.03 1427.27 540.03 1398.71C540.03 1371.65 516.905 1353.97 495.038 1336.54Z" fill="#348C58"/>
<path d="M540.006 1526.01C540.006 1498.95 516.881 1481.25 495.014 1463.84C471.913 1482.24 450.021 1500.36 449.997 1528.92V1528.97C450.021 1555.93 473.001 1573.58 494.82 1590.97C471.792 1609.33 450.021 1627.42 449.997 1655.91V1655.95C450.021 1683.02 473.146 1700.69 495.014 1718.11C518.115 1699.7 540.006 1681.56 540.006 1653C540.006 1626.01 517.026 1608.36 495.231 1591C518.26 1572.62 540.006 1554.5 540.006 1526.01Z" fill="#348C58"/>
<path d="M495.038 1718.11C471.937 1736.51 450.045 1754.62 450.021 1783.18V1783.23C450.045 1810.29 473.171 1827.97 495.038 1845.38C518.139 1826.98 540.03 1808.84 540.03 1780.28C540.006 1753.22 516.905 1735.52 495.038 1718.11Z" fill="#348C58"/>
<path d="M495.231 1972.52C518.26 1954.16 540.03 1936.05 540.03 1907.56C540.03 1880.5 516.905 1862.8 495.038 1845.38C471.937 1863.79 450.045 1881.9 450.021 1910.46V1910.51C450.045 1937.48 473.025 1955.13 494.82 1972.49C472.397 1990.34 450.021 2008.24 450.021 2036H540.006V2035.98C540.006 2008.26 517.655 1990.39 495.231 1972.52Z" fill="#348C58"/>
<path d="M630.015 0H540.03V0.0241837C540.054 27.8354 562.551 45.7313 585.047 63.6514C607.543 45.7313 630.015 27.8354 630.015 0Z" fill="#348C58"/>
<path d="M585.047 190.93C608.148 172.526 630.039 154.389 630.039 125.828C630.039 98.7661 606.914 81.0636 585.047 63.6514C561.946 82.0551 540.054 100.169 540.03 128.73V128.778C540.03 155.84 563.18 173.518 585.047 190.93Z" fill="#348C58"/>
<path d="M585.047 318.233C608.148 299.829 630.039 281.691 630.039 253.13C630.039 226.069 606.914 208.366 585.047 190.954C561.946 209.358 540.054 227.471 540.03 256.032V256.081C540.03 283.118 563.18 300.796 585.047 318.233Z" fill="#348C58"/>
<path d="M585.047 318.233C561.946 336.637 540.054 354.75 540.03 383.311V383.36C540.054 410.421 563.18 428.099 585.047 445.512C608.148 427.108 630.039 408.97 630.039 380.409C630.015 353.348 606.914 335.645 585.047 318.233Z" fill="#348C58"/>
<path d="M540.03 510.638C540.054 537.7 563.18 555.378 585.047 572.79C608.148 554.387 630.039 536.249 630.039 507.688C630.039 480.626 606.914 462.924 585.047 445.512C561.946 463.916 540.054 482.029 540.03 510.59V510.638Z" fill="#348C58"/>
<path d="M540.03 637.941C540.054 665.003 563.18 682.681 585.047 700.093C608.148 681.689 630.039 663.552 630.039 634.991C630.039 607.929 606.914 590.227 585.047 572.814C561.946 591.218 540.054 609.332 540.03 637.893V637.941Z" fill="#348C58"/>
<path d="M585.047 827.396C608.148 808.993 630.039 790.855 630.039 762.294C630.039 735.232 606.914 717.53 585.047 700.118C561.946 718.521 540.054 736.635 540.03 765.196V765.244C540.03 792.282 563.18 809.96 585.047 827.396Z" fill="#348C58"/>
<path d="M585.047 827.396C561.946 845.8 540.054 863.914 540.03 892.475V892.523C540.054 919.585 563.18 937.263 585.047 954.675C608.148 936.271 630.039 918.134 630.039 889.573C630.015 862.511 606.914 844.809 585.047 827.396Z" fill="#348C58"/>
<path d="M585.047 954.675C561.946 973.079 540.054 991.192 540.03 1019.75V1019.8C540.054 1046.86 563.18 1064.54 585.047 1081.95C608.148 1063.55 630.039 1045.41 630.039 1016.85C630.015 989.789 606.914 972.111 585.047 954.675Z" fill="#348C58"/>
<path d="M585.047 1081.98C561.946 1100.38 540.054 1118.5 540.03 1147.06V1147.1C540.054 1174.17 563.18 1191.84 585.047 1209.26C608.148 1190.85 630.039 1172.72 630.039 1144.15C630.015 1117.07 606.914 1099.39 585.047 1081.98Z" fill="#348C58"/>
<path d="M585.047 1336.54C608.148 1318.13 630.039 1299.99 630.039 1271.43C630.039 1244.37 606.914 1226.67 585.047 1209.26C561.946 1227.66 540.054 1245.77 540.03 1274.34V1274.38C540.03 1301.45 563.18 1319.12 585.047 1336.54Z" fill="#348C58"/>
<path d="M585.047 1336.54C561.946 1354.94 540.054 1373.05 540.03 1401.61V1401.66C540.054 1428.72 563.18 1446.4 585.047 1463.81C608.148 1445.41 630.039 1427.27 630.039 1398.71C630.015 1371.65 606.914 1353.97 585.047 1336.54Z" fill="#348C58"/>
<path d="M585.047 1463.84C561.946 1482.24 540.054 1500.36 540.03 1528.92V1528.97C540.054 1555.93 563.034 1573.58 584.853 1590.97C561.825 1609.33 540.054 1627.42 540.03 1655.91V1655.95C540.054 1683.02 563.18 1700.69 585.047 1718.11C608.148 1699.7 630.039 1681.56 630.039 1653C630.039 1626.01 607.059 1608.36 585.265 1591C608.293 1572.64 630.039 1554.55 630.039 1526.04C630.015 1498.95 606.914 1481.27 585.047 1463.84Z" fill="#348C58"/>
<path d="M585.047 1845.38C608.148 1826.98 630.039 1808.84 630.039 1780.28C630.039 1753.22 606.914 1735.52 585.047 1718.11C561.946 1736.51 540.054 1754.62 540.03 1783.18V1783.23C540.03 1810.27 563.18 1827.97 585.047 1845.38Z" fill="#348C58"/>
<path d="M585.216 1972.52C608.245 1954.16 630.015 1936.05 630.015 1907.56C630.015 1880.5 606.89 1862.8 585.023 1845.38C561.922 1863.79 540.03 1881.9 540.006 1910.46V1910.51C540.03 1937.48 563.01 1955.13 584.805 1972.49C562.381 1990.34 540.006 2008.24 540.006 2036H629.991V2035.98C630.015 2008.26 607.64 1990.39 585.216 1972.52Z" fill="#348C58"/>
<path d="M675.032 63.6514C697.528 45.7555 720.024 27.8354 720.024 0H630.04V0.0241837C630.04 27.8354 652.536 45.7313 675.032 63.6514Z" fill="#348C58"/>
<path d="M630.015 128.73V128.778C630.039 155.84 653.164 173.518 675.032 190.93C698.133 172.526 720.024 154.389 720.024 125.828C720.024 98.7661 696.899 81.0636 675.032 63.6514C651.955 82.0551 630.039 100.169 630.015 128.73Z" fill="#348C58"/>
<path d="M675.032 318.233C698.133 299.829 720.024 281.691 720.024 253.13C720.024 226.069 696.899 208.366 675.032 190.954C651.931 209.358 630.039 227.471 630.015 256.032V256.081C630.039 283.118 653.189 300.796 675.032 318.233Z" fill="#348C58"/>
<path d="M675.032 318.233C651.931 336.637 630.039 354.75 630.015 383.311V383.36C630.039 410.421 653.164 428.099 675.032 445.512C698.133 427.108 720.024 408.97 720.024 380.409C720.024 353.348 696.899 335.645 675.032 318.233Z" fill="#348C58"/>
<path d="M675.032 445.512C651.931 463.916 630.039 482.029 630.015 510.59V510.638C630.039 537.7 653.164 555.378 675.032 572.79C698.133 554.387 720.024 536.249 720.024 507.688C720.024 480.626 696.899 462.948 675.032 445.512Z" fill="#348C58"/>
<path d="M675.032 572.814C651.931 591.218 630.039 609.332 630.015 637.893V637.941C630.039 665.003 653.164 682.681 675.032 700.093C698.133 681.689 720.024 663.552 720.024 634.991C720.024 607.929 696.899 590.227 675.032 572.814Z" fill="#348C58"/>
<path d="M675.032 827.396C698.133 808.993 720.024 790.855 720.024 762.294C720.024 735.232 696.899 717.53 675.032 700.118C651.931 718.521 630.039 736.635 630.015 765.196V765.244C630.039 792.282 653.189 809.96 675.032 827.396Z" fill="#348C58"/>
<path d="M675.032 827.396C651.931 845.8 630.039 863.914 630.015 892.475V892.523C630.039 919.585 653.164 937.263 675.032 954.675C698.133 936.271 720.024 918.134 720.024 889.573C720.024 862.511 696.899 844.809 675.032 827.396Z" fill="#348C58"/>
<path d="M675.032 954.675C651.931 973.079 630.039 991.192 630.015 1019.75V1019.8C630.039 1046.86 653.164 1064.54 675.032 1081.95C698.133 1063.55 720.024 1045.41 720.024 1016.85C720.024 989.789 696.899 972.111 675.032 954.675Z" fill="#348C58"/>
<path d="M675.032 1081.98C651.931 1100.38 630.039 1118.5 630.015 1147.06V1147.1C630.039 1174.17 653.164 1191.84 675.032 1209.26C698.133 1190.85 720.024 1172.72 720.024 1144.15C720.024 1117.07 696.899 1099.39 675.032 1081.98Z" fill="#348C58"/>
<path d="M675.032 1336.54C698.133 1318.13 720.024 1299.99 720.024 1271.43C720.024 1244.37 696.899 1226.67 675.032 1209.26C651.931 1227.66 630.039 1245.77 630.015 1274.34V1274.38C630.039 1301.45 653.164 1319.12 675.032 1336.54Z" fill="#348C58"/>
<path d="M675.032 1336.54C651.931 1354.94 630.039 1373.05 630.015 1401.61V1401.66C630.039 1428.72 653.164 1446.4 675.032 1463.81C698.133 1445.41 720.024 1427.27 720.024 1398.71C720.024 1371.65 696.899 1353.97 675.032 1336.54Z" fill="#348C58"/>
<path d="M720.024 1526.01C720.024 1498.95 696.899 1481.25 675.032 1463.84C651.931 1482.24 630.039 1500.36 630.015 1528.92V1528.97C630.039 1555.93 653.019 1573.58 674.838 1590.97C651.81 1609.33 630.039 1627.42 630.015 1655.91V1655.95C630.039 1683.02 653.164 1700.69 675.032 1718.11C698.133 1699.7 720.024 1681.56 720.024 1653C720.024 1626.01 697.044 1608.36 675.25 1591C698.254 1572.62 720.024 1554.5 720.024 1526.01Z" fill="#348C58"/>
<path d="M675.032 1718.11C651.931 1736.51 630.039 1754.62 630.015 1783.18V1783.23C630.039 1810.29 653.164 1827.97 675.032 1845.38C698.133 1826.98 720.024 1808.84 720.024 1780.28C720.024 1753.22 696.899 1735.52 675.032 1718.11Z" fill="#348C58"/>
<path d="M675.225 1972.52C698.254 1954.16 720.024 1936.05 720.024 1907.56C720.024 1880.5 696.899 1862.8 675.032 1845.38C651.931 1863.79 630.039 1881.9 630.015 1910.46V1910.51C630.039 1937.48 653.019 1955.13 674.814 1972.49C652.39 1990.34 630.015 2008.24 630.015 2036H720V2035.98C720 2008.26 697.649 1990.39 675.225 1972.52Z" fill="#348C58"/>
<path d="M810.033 0H720.048V0.0241837C720.073 27.8354 742.569 45.7313 765.065 63.6514C787.537 45.7313 810.033 27.8354 810.033 0Z" fill="#348C58"/>
<path d="M765.041 190.93C788.142 172.526 810.033 154.389 810.033 125.828C810.033 98.7661 786.908 81.0636 765.041 63.6514C741.94 82.0551 720.049 100.169 720.024 128.73V128.778C720.049 155.84 743.198 173.518 765.041 190.93Z" fill="#348C58"/>
<path d="M765.041 318.233C788.142 299.829 810.033 281.691 810.033 253.13C810.033 226.069 786.908 208.366 765.041 190.954C741.94 209.358 720.049 227.471 720.024 256.032V256.081C720.049 283.118 743.174 300.796 765.041 318.233Z" fill="#348C58"/>
<path d="M765.041 318.233C741.94 336.637 720.049 354.75 720.024 383.311V383.36C720.049 410.421 743.174 428.099 765.041 445.512C788.142 427.108 810.033 408.97 810.033 380.409C810.033 353.348 786.908 335.645 765.041 318.233Z" fill="#348C58"/>
<path d="M720.024 510.638C720.049 537.7 743.174 555.378 765.041 572.79C788.142 554.387 810.033 536.249 810.033 507.688C810.033 480.626 786.908 462.924 765.041 445.512C741.94 463.916 720.049 482.029 720.024 510.59V510.638Z" fill="#348C58"/>
<path d="M720.024 637.941C720.049 665.003 743.174 682.681 765.041 700.093C788.142 681.689 810.033 663.552 810.033 634.991C810.033 607.929 786.908 590.227 765.041 572.814C741.94 591.218 720.049 609.332 720.024 637.893V637.941Z" fill="#348C58"/>
<path d="M765.041 827.396C788.142 808.993 810.033 790.855 810.033 762.294C810.033 735.232 786.908 717.53 765.041 700.118C741.94 718.521 720.049 736.635 720.024 765.196V765.244C720.049 792.282 743.174 809.96 765.041 827.396Z" fill="#348C58"/>
<path d="M765.041 827.396C741.94 845.8 720.049 863.914 720.024 892.475V892.523C720.049 919.585 743.174 937.263 765.041 954.675C788.142 936.271 810.033 918.134 810.033 889.573C810.033 862.511 786.908 844.809 765.041 827.396Z" fill="#348C58"/>
<path d="M765.041 954.675C741.94 973.079 720.049 991.192 720.024 1019.75V1019.8C720.049 1046.86 743.174 1064.54 765.041 1081.95C788.142 1063.55 810.033 1045.41 810.033 1016.85C810.033 989.789 786.908 972.111 765.041 954.675Z" fill="#348C58"/>
<path d="M765.041 1081.98C741.94 1100.38 720.049 1118.5 720.024 1147.06V1147.1C720.049 1174.17 743.174 1191.84 765.041 1209.26C788.142 1190.85 810.033 1172.72 810.033 1144.15C810.033 1117.07 786.908 1099.39 765.041 1081.98Z" fill="#348C58"/>
<path d="M765.041 1336.54C788.142 1318.13 810.033 1299.99 810.033 1271.43C810.033 1244.37 786.908 1226.67 765.041 1209.26C741.94 1227.66 720.049 1245.77 720.024 1274.34V1274.38C720.024 1301.45 743.174 1319.12 765.041 1336.54Z" fill="#348C58"/>
<path d="M765.041 1336.54C741.94 1354.94 720.049 1373.05 720.024 1401.61V1401.66C720.049 1428.72 743.174 1446.4 765.041 1463.81C788.142 1445.41 810.033 1427.27 810.033 1398.71C810.033 1371.65 786.908 1353.97 765.041 1336.54Z" fill="#348C58"/>
<path d="M765.041 1463.84C741.94 1482.24 720.049 1500.36 720.024 1528.92V1528.97C720.049 1555.93 743.029 1573.58 764.848 1590.97C741.819 1609.33 720.049 1627.42 720.024 1655.91V1655.95C720.049 1683.02 743.174 1700.69 765.041 1718.11C788.142 1699.7 810.033 1681.56 810.033 1653C810.033 1626.01 787.054 1608.36 765.259 1591C788.287 1572.64 810.033 1554.55 810.033 1526.04C810.009 1498.95 786.908 1481.27 765.041 1463.84Z" fill="#348C58"/>
<path d="M765.041 1845.38C788.142 1826.98 810.033 1808.84 810.033 1780.28C810.033 1753.22 786.908 1735.52 765.041 1718.11C741.94 1736.51 720.049 1754.62 720.024 1783.18V1783.23C720.024 1810.27 743.174 1827.97 765.041 1845.38Z" fill="#348C58"/>
<path d="M765.235 1972.52C788.263 1954.16 810.033 1936.05 810.033 1907.56C810.033 1880.5 786.908 1862.8 765.041 1845.38C741.94 1863.79 720.049 1881.9 720.024 1910.46V1910.51C720.049 1937.48 743.029 1955.13 764.823 1972.49C742.4 1990.34 720.024 2008.24 720.024 2036H810.009V2035.98C810.009 2008.26 787.658 1990.39 765.235 1972.52Z" fill="#348C58"/>
<path d="M855.05 63.6514C877.546 45.7555 900.043 27.8354 900.043 0H810.058V0.0241837C810.033 27.8354 832.53 45.7313 855.05 63.6514Z" fill="#348C58"/>
<path d="M810.033 128.73V128.778C810.057 155.84 833.183 173.518 855.05 190.93C878.151 172.526 900.042 154.389 900.042 125.828C900.042 98.7661 876.917 81.0636 855.05 63.6514C831.949 82.0551 810.033 100.169 810.033 128.73Z" fill="#348C58"/>
<path d="M855.026 318.233C878.127 299.829 900.018 281.691 900.018 253.13C900.018 226.069 876.893 208.366 855.026 190.954C831.925 209.358 810.033 227.471 810.009 256.032V256.081C810.033 283.118 833.183 300.796 855.026 318.233Z" fill="#348C58"/>
<path d="M855.05 318.233C831.949 336.637 810.057 354.75 810.033 383.311V383.36C810.057 410.421 833.183 428.099 855.05 445.512C878.151 427.108 900.042 408.97 900.042 380.409C900.018 353.348 876.893 335.645 855.05 318.233Z" fill="#348C58"/>
<path d="M855.05 445.512C831.949 463.916 810.057 482.029 810.033 510.59V510.638C810.057 537.7 833.183 555.378 855.05 572.79C878.151 554.387 900.042 536.249 900.042 507.688C900.018 480.626 876.893 462.948 855.05 445.512Z" fill="#348C58"/>
<path d="M855.05 572.814C831.949 591.218 810.057 609.332 810.033 637.893V637.941C810.057 665.003 833.183 682.681 855.05 700.093C878.151 681.689 900.042 663.552 900.042 634.991C900.018 607.929 876.893 590.227 855.05 572.814Z" fill="#348C58"/>
<path d="M855.026 827.396C878.127 808.993 900.018 790.855 900.018 762.294C900.018 735.232 876.893 717.53 855.026 700.118C831.925 718.521 810.033 736.635 810.009 765.196V765.244C810.033 792.282 833.183 809.96 855.026 827.396Z" fill="#348C58"/>
<path d="M855.05 827.396C831.949 845.8 810.057 863.914 810.033 892.475V892.523C810.057 919.585 833.183 937.263 855.05 954.675C878.151 936.271 900.042 918.134 900.042 889.573C900.018 862.511 876.893 844.809 855.05 827.396Z" fill="#348C58"/>
<path d="M855.026 954.675C831.925 973.079 810.033 991.192 810.009 1019.75V1019.8C810.033 1046.86 833.159 1064.54 855.026 1081.95C878.127 1063.55 900.018 1045.41 900.018 1016.85C900.018 989.789 876.893 972.111 855.026 954.675Z" fill="#348C58"/>
<path d="M855.026 1081.98C831.925 1100.38 810.033 1118.5 810.009 1147.06V1147.1C810.033 1174.17 833.159 1191.84 855.026 1209.26C878.127 1190.85 900.018 1172.72 900.018 1144.15C900.018 1117.07 876.893 1099.39 855.026 1081.98Z" fill="#348C58"/>
<path d="M855.026 1336.54C878.127 1318.13 900.018 1299.99 900.018 1271.43C900.018 1244.37 876.893 1226.67 855.026 1209.26C831.925 1227.66 810.033 1245.77 810.009 1274.34V1274.38C810.033 1301.45 833.183 1319.12 855.026 1336.54Z" fill="#348C58"/>
<path d="M855.026 1336.54C831.925 1354.94 810.033 1373.05 810.009 1401.61V1401.66C810.033 1428.72 833.159 1446.4 855.026 1463.81C878.127 1445.41 900.018 1427.27 900.018 1398.71C900.018 1371.65 876.893 1353.97 855.026 1336.54Z" fill="#348C58"/>
<path d="M900.018 1526.01C900.018 1498.95 876.893 1481.25 855.026 1463.84C831.925 1482.24 810.033 1500.36 810.009 1528.92V1528.97C810.033 1555.93 833.013 1573.58 854.832 1590.97C831.804 1609.33 810.033 1627.42 810.009 1655.91V1655.95C810.033 1683.02 833.159 1700.69 855.026 1718.11C878.127 1699.7 900.018 1681.56 900.018 1653C900.018 1626.01 877.038 1608.36 855.244 1591C878.272 1572.62 900.018 1554.5 900.018 1526.01Z" fill="#348C58"/>
<path d="M855.026 1718.11C831.925 1736.51 810.033 1754.62 810.009 1783.18V1783.23C810.033 1810.29 833.159 1827.97 855.026 1845.38C878.127 1826.98 900.018 1808.84 900.018 1780.28C900.018 1753.22 876.893 1735.52 855.026 1718.11Z" fill="#348C58"/>
<path d="M855.219 1972.52C878.248 1954.16 900.018 1936.05 900.018 1907.56C900.018 1880.5 876.893 1862.8 855.026 1845.38C831.925 1863.79 810.033 1881.9 810.009 1910.46V1910.51C810.033 1937.48 833.013 1955.13 854.808 1972.49C832.385 1990.34 810.009 2008.24 810.009 2036H899.994V2035.98C900.018 2008.26 877.643 1990.39 855.219 1972.52Z" fill="#348C58"/>
<path d="M990.027 0H900.042V0.0241837C900.067 27.8354 922.563 45.7313 945.059 63.6514C967.531 45.7313 990.027 27.8354 990.027 0Z" fill="#348C58"/>
<path d="M945.035 190.93C968.136 172.526 990.027 154.389 990.027 125.828C990.027 98.7661 966.902 81.0636 945.035 63.6514C921.934 82.0551 900.042 100.169 900.018 128.73V128.778C900.042 155.84 923.192 173.518 945.035 190.93Z" fill="#348C58"/>
<path d="M945.035 318.233C968.136 299.829 990.027 281.691 990.027 253.13C990.027 226.069 966.902 208.366 945.035 190.954C921.934 209.358 900.042 227.471 900.018 256.032V256.081C900.042 283.118 923.192 300.796 945.035 318.233Z" fill="#348C58"/>
<path d="M945.035 318.233C921.934 336.637 900.042 354.75 900.018 383.311V383.36C900.042 410.421 923.167 428.099 945.035 445.512C968.136 427.108 990.027 408.97 990.027 380.409C990.027 353.348 966.902 335.645 945.035 318.233Z" fill="#348C58"/>
<path d="M900.018 510.638C900.042 537.7 923.167 555.378 945.035 572.79C968.136 554.387 990.027 536.249 990.027 507.688C990.027 480.626 966.902 462.924 945.035 445.512C921.934 463.916 900.042 482.029 900.018 510.59V510.638Z" fill="#348C58"/>
<path d="M900.018 637.941C900.042 665.003 923.167 682.681 945.035 700.093C968.136 681.689 990.027 663.552 990.027 634.991C990.027 607.929 966.902 590.227 945.035 572.814C921.934 591.218 900.042 609.332 900.018 637.893V637.941Z" fill="#348C58"/>
<path d="M945.035 827.396C968.136 808.993 990.027 790.855 990.027 762.294C990.027 735.232 966.902 717.53 945.035 700.118C921.934 718.521 900.042 736.635 900.018 765.196V765.244C900.042 792.282 923.192 809.96 945.035 827.396Z" fill="#348C58"/>
<path d="M945.035 827.396C921.934 845.8 900.042 863.914 900.018 892.475V892.523C900.042 919.585 923.167 937.263 945.035 954.675C968.136 936.271 990.027 918.134 990.027 889.573C990.027 862.511 966.902 844.809 945.035 827.396Z" fill="#348C58"/>
<path d="M900.018 1019.8C900.042 1046.86 923.167 1064.54 945.035 1081.95C968.136 1063.55 990.027 1045.41 990.027 1016.85C990.027 989.789 966.902 972.087 945.035 954.675C921.934 973.079 900.042 991.192 900.018 1019.75V1019.8Z" fill="#348C58"/>
<path d="M900.018 1147.1C900.042 1174.17 923.167 1191.84 945.035 1209.26C968.136 1190.85 990.027 1172.72 990.027 1144.15C990.027 1117.09 966.902 1099.39 945.035 1081.98C921.934 1100.38 900.042 1118.5 900.018 1147.06V1147.1Z" fill="#348C58"/>
<path d="M945.035 1336.54C968.136 1318.13 990.027 1299.99 990.027 1271.43C990.027 1244.37 966.902 1226.67 945.035 1209.26C921.934 1227.66 900.042 1245.77 900.018 1274.34V1274.38C900.042 1301.45 923.192 1319.12 945.035 1336.54Z" fill="#348C58"/>
<path d="M945.035 1336.54C921.934 1354.94 900.042 1373.05 900.018 1401.61V1401.66C900.042 1428.72 923.167 1446.4 945.035 1463.81C968.136 1445.41 990.027 1427.27 990.027 1398.71C990.027 1371.65 966.902 1353.97 945.035 1336.54Z" fill="#348C58"/>
<path d="M900.018 1655.9V1655.95C900.042 1683.01 923.167 1700.69 945.035 1718.11C968.136 1699.7 990.027 1681.56 990.027 1653C990.027 1626.01 967.047 1608.36 945.252 1591C968.281 1572.64 990.027 1554.55 990.027 1526.04C990.027 1498.98 966.902 1481.27 945.035 1463.86C921.934 1482.27 900.042 1500.38 900.018 1528.94V1528.99C900.042 1555.95 923.022 1573.61 944.841 1591C921.813 1609.33 900.042 1627.42 900.018 1655.9Z" fill="#348C58"/>
<path d="M945.035 1845.38C968.136 1826.98 990.027 1808.84 990.027 1780.28C990.027 1753.22 966.902 1735.52 945.035 1718.11C921.934 1736.51 900.042 1754.62 900.018 1783.18V1783.23C900.042 1810.27 923.167 1827.97 945.035 1845.38Z" fill="#348C58"/>
<path d="M945.228 1972.52C968.257 1954.16 990.027 1936.05 990.027 1907.56C990.027 1880.5 966.902 1862.8 945.035 1845.38C921.934 1863.79 900.042 1881.9 900.018 1910.46V1910.51C900.042 1937.48 923.022 1955.13 944.817 1972.49C922.393 1990.34 900.018 2008.24 900.018 2036H990.003V2035.98C990.003 2008.26 967.652 1990.39 945.228 1972.52Z" fill="#348C58"/>
<path d="M1035.04 63.6514C1057.54 45.7555 1080.04 27.8354 1080.04 0H990.051V0.0241837C990.027 27.8354 1012.55 45.7313 1035.04 63.6514Z" fill="#348C58"/>
<path d="M990.027 128.73V128.778C990.052 155.84 1013.18 173.518 1035.04 190.93C1058.14 172.526 1080.04 154.389 1080.04 125.828C1080.04 98.7661 1056.91 81.0636 1035.04 63.6514C1011.94 82.0551 990.027 100.169 990.027 128.73Z" fill="#348C58"/>
<path d="M1035.04 190.93C1011.94 209.334 990.052 227.448 990.027 256.008V256.057C990.052 283.118 1013.18 300.797 1035.04 318.209C1058.14 299.805 1080.04 281.667 1080.04 253.106C1080.01 226.045 1056.91 208.367 1035.04 190.93Z" fill="#348C58"/>
<path d="M1035.04 445.512C1058.14 427.108 1080.04 408.97 1080.04 380.409C1080.04 353.348 1056.91 335.645 1035.04 318.233C1011.94 336.637 990.052 354.75 990.027 383.311V383.36C990.052 410.421 1013.18 428.099 1035.04 445.512Z" fill="#348C58"/>
<path d="M990.027 510.638C990.052 537.7 1013.18 555.378 1035.04 572.79C1058.14 554.387 1080.04 536.249 1080.04 507.688C1080.04 480.626 1056.91 462.924 1035.04 445.512C1011.94 463.916 990.052 482.029 990.027 510.59V510.638Z" fill="#348C58"/>
<path d="M1035.04 700.093C1058.14 681.689 1080.04 663.552 1080.04 634.991C1080.04 607.929 1056.91 590.227 1035.04 572.814C1011.94 591.218 990.052 609.332 990.027 637.893V637.941C990.027 665.003 1013.18 682.681 1035.04 700.093Z" fill="#348C58"/>
<path d="M990.027 765.22C990.052 792.282 1013.18 809.96 1035.04 827.372C1058.14 808.968 1080.04 790.83 1080.04 762.27C1080.04 735.208 1056.91 717.506 1035.04 700.093C1011.94 718.497 990.052 736.611 990.027 765.172V765.22Z" fill="#348C58"/>
<path d="M1035.04 827.396C1011.94 845.8 990.052 863.914 990.027 892.475V892.523C990.052 919.585 1013.18 937.263 1035.04 954.675C1058.14 936.271 1080.04 918.134 1080.04 889.573C1080.01 862.511 1056.91 844.809 1035.04 827.396Z" fill="#348C58"/>
<path d="M1035.04 954.675C1011.94 973.079 990.052 991.192 990.027 1019.75V1019.8C990.052 1046.86 1013.18 1064.54 1035.04 1081.95C1058.14 1063.55 1080.04 1045.41 1080.04 1016.85C1080.01 989.789 1056.91 972.111 1035.04 954.675Z" fill="#348C58"/>
<path d="M1035.04 1209.26C1058.14 1190.85 1080.04 1172.72 1080.04 1144.15C1080.04 1117.09 1056.91 1099.39 1035.04 1081.98C1011.94 1100.38 990.052 1118.5 990.027 1147.06V1147.1C990.027 1174.14 1013.18 1191.84 1035.04 1209.26Z" fill="#348C58"/>
<path d="M990.027 1274.38C990.052 1301.45 1013.18 1319.12 1035.04 1336.54C1058.14 1318.13 1080.04 1299.99 1080.04 1271.43C1080.04 1244.37 1056.91 1226.67 1035.04 1209.26C1011.94 1227.66 990.052 1245.77 990.027 1274.34V1274.38Z" fill="#348C58"/>
<path d="M1035.04 1336.54C1011.94 1354.94 990.052 1373.05 990.027 1401.61V1401.66C990.052 1428.72 1013.18 1446.4 1035.04 1463.81C1058.14 1445.41 1080.04 1427.27 1080.04 1398.71C1080.01 1371.65 1056.91 1353.97 1035.04 1336.54Z" fill="#348C58"/>
<path d="M1035.04 1718.11C1058.14 1699.7 1080.04 1681.56 1080.04 1653C1080.04 1626.01 1057.06 1608.36 1035.26 1591C1058.29 1572.64 1080.04 1554.55 1080.04 1526.04C1080.04 1498.98 1056.91 1481.27 1035.04 1463.86C1011.94 1482.27 990.052 1500.38 990.027 1528.94V1528.99C990.052 1555.95 1013.03 1573.61 1034.85 1591C1011.82 1609.35 990.052 1627.44 990.027 1655.93V1655.98C990.027 1682.99 1013.18 1700.67 1035.04 1718.11Z" fill="#348C58"/>
<path d="M990.027 1783.23C990.052 1810.29 1013.18 1827.97 1035.04 1845.38C1058.14 1826.98 1080.04 1808.84 1080.04 1780.28C1080.04 1753.22 1056.91 1735.52 1035.04 1718.11C1011.94 1736.51 990.052 1754.62 990.027 1783.18V1783.23Z" fill="#348C58"/>
<path d="M1035.21 1972.52C1058.24 1954.16 1080.01 1936.05 1080.01 1907.56C1080.01 1880.5 1056.89 1862.8 1035.02 1845.38C1011.92 1863.79 990.027 1881.9 990.003 1910.46V1910.51C990.027 1937.48 1013.01 1955.13 1034.8 1972.49C1012.38 1990.34 990.003 2008.24 990.003 2036H1079.99V2035.98C1080.01 2008.26 1057.64 1990.39 1035.21 1972.52Z" fill="#348C58"/>
<path d="M1125.03 63.6514C1147.52 45.7555 1170.02 27.8354 1170.02 0H1080.04V0.0241837C1080.04 27.8354 1102.53 45.7313 1125.03 63.6514Z" fill="#348C58"/>
<path d="M1080.01 128.73V128.778C1080.04 155.84 1103.16 173.518 1125.03 190.93C1148.13 172.526 1170.02 154.389 1170.02 125.828C1170.02 98.7661 1146.9 81.0636 1125.03 63.6514C1101.95 82.0551 1080.04 100.169 1080.01 128.73Z" fill="#348C58"/>
<path d="M1125.03 190.93C1101.93 209.334 1080.04 227.448 1080.01 256.008V256.057C1080.04 283.118 1103.16 300.797 1125.03 318.209C1148.13 299.805 1170.02 281.667 1170.02 253.106C1170.02 226.045 1146.9 208.367 1125.03 190.93Z" fill="#348C58"/>
<path d="M1125.03 318.233C1101.93 336.637 1080.04 354.75 1080.01 383.311V383.36C1080.04 410.421 1103.16 428.099 1125.03 445.512C1148.13 427.108 1170.02 408.97 1170.02 380.409C1170.02 353.348 1146.9 335.645 1125.03 318.233Z" fill="#348C58"/>
<path d="M1125.03 445.512C1101.93 463.916 1080.04 482.029 1080.01 510.59V510.638C1080.04 537.7 1103.16 555.378 1125.03 572.79C1148.13 554.387 1170.02 536.249 1170.02 507.688C1170.02 480.626 1146.9 462.948 1125.03 445.512Z" fill="#348C58"/>
<path d="M1125.03 572.814C1101.93 591.218 1080.04 609.332 1080.01 637.893V637.941C1080.04 665.003 1103.16 682.681 1125.03 700.093C1148.13 681.689 1170.02 663.552 1170.02 634.991C1170.02 607.929 1146.9 590.227 1125.03 572.814Z" fill="#348C58"/>
<path d="M1125.03 827.396C1148.13 808.993 1170.02 790.855 1170.02 762.294C1170.02 735.232 1146.9 717.53 1125.03 700.118C1101.93 718.521 1080.04 736.635 1080.01 765.196V765.244C1080.04 792.282 1103.19 809.96 1125.03 827.396Z" fill="#348C58"/>
<path d="M1125.03 827.396C1101.93 845.8 1080.04 863.914 1080.01 892.475V892.523C1080.04 919.585 1103.16 937.263 1125.03 954.675C1148.13 936.271 1170.02 918.134 1170.02 889.573C1170.02 862.511 1146.9 844.809 1125.03 827.396Z" fill="#348C58"/>
<path d="M1125.03 954.675C1101.93 973.079 1080.04 991.192 1080.01 1019.75V1019.8C1080.04 1046.86 1103.16 1064.54 1125.03 1081.95C1148.13 1063.55 1170.02 1045.41 1170.02 1016.85C1170.02 989.789 1146.9 972.111 1125.03 954.675Z" fill="#348C58"/>
<path d="M1125.03 1081.98C1101.93 1100.38 1080.04 1118.5 1080.01 1147.06V1147.1C1080.04 1174.17 1103.16 1191.84 1125.03 1209.26C1148.13 1190.85 1170.02 1172.72 1170.02 1144.15C1170.02 1117.07 1146.9 1099.39 1125.03 1081.98Z" fill="#348C58"/>
<path d="M1125.03 1336.54C1148.13 1318.13 1170.02 1299.99 1170.02 1271.43C1170.02 1244.37 1146.9 1226.67 1125.03 1209.26C1101.93 1227.66 1080.04 1245.77 1080.01 1274.34V1274.38C1080.04 1301.45 1103.16 1319.12 1125.03 1336.54Z" fill="#348C58"/>
<path d="M1125.03 1336.54C1101.93 1354.94 1080.04 1373.05 1080.01 1401.61V1401.66C1080.04 1428.72 1103.16 1446.4 1125.03 1463.81C1148.13 1445.41 1170.02 1427.27 1170.02 1398.71C1170.02 1371.65 1146.9 1353.97 1125.03 1336.54Z" fill="#348C58"/>
<path d="M1125.03 1463.84C1101.93 1482.24 1080.04 1500.36 1080.01 1528.92V1528.97C1080.04 1555.93 1103.02 1573.58 1124.84 1590.97C1101.81 1609.33 1080.04 1627.42 1080.01 1655.91V1655.95C1080.04 1683.02 1103.16 1700.69 1125.03 1718.11C1148.13 1699.7 1170.02 1681.56 1170.02 1653C1170.02 1626.01 1147.04 1608.36 1125.25 1591C1148.27 1572.64 1170.02 1554.55 1170.02 1526.04C1170.02 1498.95 1146.9 1481.27 1125.03 1463.84Z" fill="#348C58"/>
<path d="M1125.03 1845.38C1148.13 1826.98 1170.02 1808.84 1170.02 1780.28C1170.02 1753.22 1146.9 1735.52 1125.03 1718.11C1101.93 1736.51 1080.04 1754.62 1080.01 1783.18V1783.23C1080.04 1810.27 1103.16 1827.97 1125.03 1845.38Z" fill="#348C58"/>
<path d="M1125.22 1972.52C1148.25 1954.16 1170.02 1936.05 1170.02 1907.56C1170.02 1880.5 1146.9 1862.8 1125.03 1845.38C1101.93 1863.79 1080.04 1881.9 1080.01 1910.46V1910.51C1080.04 1937.48 1103.02 1955.13 1124.81 1972.49C1102.39 1990.34 1080.01 2008.24 1080.01 2036H1170V2035.98C1170 2008.26 1147.65 1990.39 1125.22 1972.52Z" fill="#348C58"/>
<path d="M1215.04 63.6514C1237.53 45.7555 1260.03 27.8354 1260.03 0H1170.05V0.0241837C1170.02 27.8354 1192.54 45.7313 1215.04 63.6514Z" fill="#348C58"/>
<path d="M1170.02 128.73V128.778C1170.05 155.84 1193.17 173.518 1215.04 190.93C1238.14 172.526 1260.03 154.389 1260.03 125.828C1260.03 98.7661 1236.91 81.0636 1215.04 63.6514C1191.94 82.0551 1170.02 100.169 1170.02 128.73Z" fill="#348C58"/>
<path d="M1215.04 318.233C1238.14 299.829 1260.03 281.691 1260.03 253.13C1260.03 226.069 1236.91 208.366 1215.04 190.954C1191.94 209.358 1170.05 227.471 1170.02 256.032V256.081C1170.02 283.118 1193.17 300.796 1215.04 318.233Z" fill="#348C58"/>
<path d="M1215.04 318.233C1191.94 336.637 1170.05 354.75 1170.02 383.311V383.36C1170.05 410.421 1193.17 428.099 1215.04 445.512C1238.14 427.108 1260.03 408.97 1260.03 380.409C1260.01 353.348 1236.91 335.645 1215.04 318.233Z" fill="#348C58"/>
<path d="M1215.04 445.512C1191.94 463.916 1170.05 482.029 1170.02 510.59V510.638C1170.05 537.7 1193.17 555.378 1215.04 572.79C1238.14 554.387 1260.03 536.249 1260.03 507.688C1260.01 480.626 1236.91 462.948 1215.04 445.512Z" fill="#348C58"/>
<path d="M1215.04 572.814C1191.94 591.218 1170.05 609.332 1170.02 637.893V637.941C1170.05 665.003 1193.17 682.681 1215.04 700.093C1238.14 681.689 1260.03 663.552 1260.03 634.991C1260.01 607.929 1236.91 590.227 1215.04 572.814Z" fill="#348C58"/>
<path d="M1215.04 827.396C1238.14 808.993 1260.03 790.855 1260.03 762.294C1260.03 735.232 1236.91 717.53 1215.04 700.118C1191.94 718.521 1170.05 736.635 1170.02 765.196V765.244C1170.02 792.282 1193.17 809.96 1215.04 827.396Z" fill="#348C58"/>
<path d="M1215.04 827.396C1191.94 845.8 1170.05 863.914 1170.02 892.475V892.523C1170.05 919.585 1193.17 937.263 1215.04 954.675C1238.14 936.271 1260.03 918.134 1260.03 889.573C1260.01 862.511 1236.91 844.809 1215.04 827.396Z" fill="#348C58"/>
<path d="M1215.04 954.675C1191.94 973.079 1170.05 991.192 1170.02 1019.75V1019.8C1170.05 1046.86 1193.17 1064.54 1215.04 1081.95C1238.14 1063.55 1260.03 1045.41 1260.03 1016.85C1260.01 989.789 1236.91 972.111 1215.04 954.675Z" fill="#348C58"/>
<path d="M1215.04 1081.98C1191.94 1100.38 1170.05 1118.5 1170.02 1147.06V1147.1C1170.05 1174.17 1193.17 1191.84 1215.04 1209.26C1238.14 1190.85 1260.03 1172.72 1260.03 1144.15C1260.01 1117.07 1236.88 1099.39 1215.04 1081.98Z" fill="#348C58"/>
<path d="M1215.04 1336.54C1238.14 1318.13 1260.03 1299.99 1260.03 1271.43C1260.03 1244.37 1236.91 1226.67 1215.04 1209.26C1191.94 1227.66 1170.05 1245.77 1170.02 1274.34V1274.38C1170.02 1301.45 1193.17 1319.12 1215.04 1336.54Z" fill="#348C58"/>
<path d="M1215.04 1336.54C1191.94 1354.94 1170.05 1373.05 1170.02 1401.61V1401.66C1170.05 1428.72 1193.17 1446.4 1215.04 1463.81C1238.14 1445.41 1260.03 1427.27 1260.03 1398.71C1260.01 1371.65 1236.91 1353.97 1215.04 1336.54Z" fill="#348C58"/>
<path d="M1260.01 1526.01C1260.01 1498.95 1236.88 1481.25 1215.01 1463.84C1191.91 1482.24 1170.02 1500.36 1170 1528.92V1528.97C1170.02 1555.93 1193 1573.58 1214.82 1590.97C1191.79 1609.33 1170.02 1627.42 1170 1655.91V1655.95C1170.02 1683.02 1193.15 1700.69 1215.01 1718.11C1238.11 1699.7 1260.01 1681.56 1260.01 1653C1260.01 1626.01 1237.03 1608.36 1215.23 1591C1238.26 1572.62 1260.01 1554.5 1260.01 1526.01Z" fill="#348C58"/>
<path d="M1215.01 1845.38C1238.11 1826.98 1260.01 1808.84 1260.01 1780.28C1260.01 1753.22 1236.88 1735.52 1215.01 1718.11C1191.91 1736.51 1170.02 1754.62 1170 1783.18V1783.23C1170.02 1810.27 1193.17 1827.97 1215.01 1845.38Z" fill="#348C58"/>
<path d="M1215.21 1972.52C1238.24 1954.16 1260.01 1936.05 1260.01 1907.56C1260.01 1880.5 1236.88 1862.8 1215.01 1845.38C1191.91 1863.79 1170.02 1881.9 1170 1910.46V1910.51C1170.02 1937.48 1193 1955.13 1214.8 1972.49C1192.37 1990.34 1170 2008.24 1170 2036H1259.98V2035.98C1260.01 2008.26 1237.63 1990.39 1215.21 1972.52Z" fill="#348C58"/>
<path d="M1350.02 0H1260.03V0.0241837C1260.05 27.8354 1282.55 45.7313 1305.05 63.6514C1327.52 45.7313 1350.02 27.8354 1350.02 0Z" fill="#348C58"/>
<path d="M1305.05 190.93C1328.15 172.526 1350.04 154.389 1350.04 125.828C1350.04 98.7661 1326.91 81.0636 1305.05 63.6514C1281.95 82.0551 1260.05 100.169 1260.03 128.73V128.778C1260.03 155.84 1283.18 173.518 1305.05 190.93Z" fill="#348C58"/>
<path d="M1305.02 318.233C1328.12 299.829 1350.01 281.691 1350.01 253.13C1350.01 226.069 1326.89 208.366 1305.02 190.954C1281.92 209.358 1260.03 227.471 1260.01 256.032V256.081C1260.03 283.118 1283.18 300.796 1305.02 318.233Z" fill="#348C58"/>
<path d="M1305.05 318.233C1281.95 336.637 1260.05 354.75 1260.03 383.311V383.36C1260.05 410.421 1283.18 428.099 1305.05 445.512C1328.15 427.108 1350.04 408.97 1350.04 380.409C1350.02 353.348 1326.89 335.645 1305.05 318.233Z" fill="#348C58"/>
<path d="M1260.03 510.638C1260.05 537.7 1283.18 555.378 1305.05 572.79C1328.15 554.387 1350.04 536.249 1350.04 507.688C1350.04 480.626 1326.91 462.924 1305.05 445.512C1281.95 463.916 1260.05 482.029 1260.03 510.59V510.638Z" fill="#348C58"/>
<path d="M1260.03 637.941C1260.05 665.003 1283.18 682.681 1305.05 700.093C1328.15 681.689 1350.04 663.552 1350.04 634.991C1350.04 607.929 1326.91 590.227 1305.05 572.814C1281.95 591.218 1260.05 609.332 1260.03 637.893V637.941Z" fill="#348C58"/>
<path d="M1305.02 827.396C1328.12 808.993 1350.01 790.855 1350.01 762.294C1350.01 735.232 1326.89 717.53 1305.02 700.118C1281.92 718.521 1260.03 736.635 1260.01 765.196V765.244C1260.03 792.282 1283.18 809.96 1305.02 827.396Z" fill="#348C58"/>
<path d="M1305.05 827.396C1281.95 845.8 1260.05 863.914 1260.03 892.475V892.523C1260.05 919.585 1283.18 937.263 1305.05 954.675C1328.15 936.271 1350.04 918.134 1350.04 889.573C1350.02 862.511 1326.89 844.809 1305.05 827.396Z" fill="#348C58"/>
<path d="M1305.02 954.675C1281.92 973.079 1260.03 991.192 1260.01 1019.75V1019.8C1260.03 1046.86 1283.16 1064.54 1305.02 1081.95C1328.12 1063.55 1350.01 1045.41 1350.01 1016.85C1350.01 989.789 1326.89 972.111 1305.02 954.675Z" fill="#348C58"/>
<path d="M1305.02 1081.98C1281.92 1100.38 1260.03 1118.5 1260.01 1147.06V1147.1C1260.03 1174.17 1283.16 1191.84 1305.02 1209.26C1328.12 1190.85 1350.01 1172.72 1350.01 1144.15C1350.01 1117.07 1326.89 1099.39 1305.02 1081.98Z" fill="#348C58"/>
<path d="M1305.02 1336.54C1328.12 1318.13 1350.01 1299.99 1350.01 1271.43C1350.01 1244.37 1326.89 1226.67 1305.02 1209.26C1281.92 1227.66 1260.03 1245.77 1260.01 1274.34V1274.38C1260.03 1301.45 1283.18 1319.12 1305.02 1336.54Z" fill="#348C58"/>
<path d="M1305.02 1336.54C1281.92 1354.94 1260.03 1373.05 1260.01 1401.61V1401.66C1260.03 1428.72 1283.16 1446.4 1305.02 1463.81C1328.12 1445.41 1350.01 1427.27 1350.01 1398.71C1350.01 1371.65 1326.89 1353.97 1305.02 1336.54Z" fill="#348C58"/>
<path d="M1305.02 1463.84C1281.92 1482.24 1260.03 1500.36 1260.01 1528.92V1528.97C1260.03 1555.93 1283.01 1573.58 1304.83 1590.97C1281.8 1609.33 1260.03 1627.42 1260.01 1655.91V1655.95C1260.03 1683.02 1283.16 1700.69 1305.02 1718.11C1328.12 1699.7 1350.01 1681.56 1350.01 1653C1350.01 1626.01 1327.03 1608.36 1305.24 1591C1328.27 1572.64 1350.01 1554.55 1350.01 1526.04C1350.01 1498.95 1326.89 1481.27 1305.02 1463.84Z" fill="#348C58"/>
<path d="M1305.02 1845.38C1328.12 1826.98 1350.01 1808.84 1350.01 1780.28C1350.01 1753.22 1326.89 1735.52 1305.02 1718.11C1281.92 1736.51 1260.03 1754.62 1260.01 1783.18V1783.23C1260.03 1810.27 1283.18 1827.97 1305.02 1845.38Z" fill="#348C58"/>
<path d="M1305.22 1972.52C1328.24 1954.16 1350.01 1936.05 1350.01 1907.56C1350.01 1880.5 1326.89 1862.8 1305.02 1845.38C1281.92 1863.79 1260.03 1881.9 1260.01 1910.46V1910.51C1260.03 1937.48 1283.01 1955.13 1304.8 1972.49C1282.38 1990.34 1260.01 2008.24 1260.01 2036H1349.99V2035.98C1350.01 2008.26 1327.64 1990.39 1305.22 1972.52Z" fill="#348C58"/>
<path d="M1395.03 63.6514C1417.53 45.7555 1440.02 27.8354 1440.02 0H1350.04V0.0241837C1350.04 27.8354 1372.54 45.7313 1395.03 63.6514Z" fill="#348C58"/>
<path d="M1350.02 128.73V128.778C1350.04 155.84 1373.16 173.518 1395.03 190.93C1418.13 172.526 1440.02 154.389 1440.02 125.828C1440.02 98.7661 1416.9 81.0636 1395.03 63.6514C1371.93 82.0551 1350.04 100.169 1350.02 128.73Z" fill="#348C58"/>
<path d="M1395.03 318.233C1418.13 299.829 1440.02 281.691 1440.02 253.13C1440.02 226.069 1416.9 208.366 1395.03 190.954C1371.93 209.358 1350.04 227.471 1350.02 256.032V256.081C1350.04 283.118 1373.16 300.796 1395.03 318.233Z" fill="#348C58"/>
<path d="M1395.03 318.233C1371.93 336.637 1350.04 354.75 1350.02 383.311V383.36C1350.04 410.421 1373.16 428.099 1395.03 445.512C1418.13 427.108 1440.02 408.97 1440.02 380.409C1440.02 353.348 1416.9 335.645 1395.03 318.233Z" fill="#348C58"/>
<path d="M1395.03 445.512C1371.93 463.916 1350.04 482.029 1350.02 510.59V510.638C1350.04 537.7 1373.16 555.378 1395.03 572.79C1418.13 554.387 1440.02 536.249 1440.02 507.688C1440.02 480.626 1416.9 462.948 1395.03 445.512Z" fill="#348C58"/>
<path d="M1395.03 572.814C1371.93 591.218 1350.04 609.332 1350.02 637.893V637.941C1350.04 665.003 1373.16 682.681 1395.03 700.093C1418.13 681.689 1440.02 663.552 1440.02 634.991C1440.02 607.929 1416.9 590.227 1395.03 572.814Z" fill="#348C58"/>
<path d="M1395.03 827.396C1418.13 808.993 1440.02 790.855 1440.02 762.294C1440.02 735.232 1416.9 717.53 1395.03 700.118C1371.93 718.521 1350.04 736.635 1350.02 765.196V765.244C1350.04 792.282 1373.16 809.96 1395.03 827.396Z" fill="#348C58"/>
<path d="M1395.03 827.396C1371.93 845.8 1350.04 863.914 1350.02 892.475V892.523C1350.04 919.585 1373.16 937.263 1395.03 954.675C1418.13 936.271 1440.02 918.134 1440.02 889.573C1440.02 862.511 1416.9 844.809 1395.03 827.396Z" fill="#348C58"/>
<path d="M1395.03 954.675C1371.93 973.079 1350.04 991.192 1350.02 1019.75V1019.8C1350.04 1046.86 1373.16 1064.54 1395.03 1081.95C1418.13 1063.55 1440.02 1045.41 1440.02 1016.85C1440.02 989.789 1416.9 972.111 1395.03 954.675Z" fill="#348C58"/>
<path d="M1395.03 1081.98C1371.93 1100.38 1350.04 1118.5 1350.02 1147.06V1147.1C1350.04 1174.17 1373.16 1191.84 1395.03 1209.26C1418.13 1190.85 1440.02 1172.72 1440.02 1144.15C1440 1117.07 1416.9 1099.39 1395.03 1081.98Z" fill="#348C58"/>
<path d="M1395.03 1336.54C1418.13 1318.13 1440.02 1299.99 1440.02 1271.43C1440.02 1244.37 1416.9 1226.67 1395.03 1209.26C1371.93 1227.66 1350.04 1245.77 1350.02 1274.34V1274.38C1350.02 1301.45 1373.16 1319.12 1395.03 1336.54Z" fill="#348C58"/>
<path d="M1395.03 1336.54C1371.93 1354.94 1350.04 1373.05 1350.02 1401.61V1401.66C1350.04 1428.72 1373.16 1446.4 1395.03 1463.81C1418.13 1445.41 1440.02 1427.27 1440.02 1398.71C1440.02 1371.65 1416.9 1353.97 1395.03 1336.54Z" fill="#348C58"/>
<path d="M1440 1526.01C1440 1498.95 1416.88 1481.25 1395.01 1463.84C1371.91 1482.24 1350.02 1500.36 1349.99 1528.92V1528.97C1350.02 1555.93 1373 1573.58 1394.81 1590.97C1371.79 1609.33 1350.02 1627.42 1349.99 1655.91V1655.95C1350.02 1683.02 1373.14 1700.69 1395.01 1718.11C1418.11 1699.7 1440 1681.56 1440 1653C1440 1626.01 1417.02 1608.36 1395.23 1591C1418.25 1572.62 1440 1554.5 1440 1526.01Z" fill="#348C58"/>
<path d="M1395.03 1718.11C1371.93 1736.51 1350.04 1754.62 1350.02 1783.18V1783.23C1350.04 1810.29 1373.16 1827.97 1395.03 1845.38C1418.13 1826.98 1440.02 1808.84 1440.02 1780.28C1440 1753.22 1416.9 1735.52 1395.03 1718.11Z" fill="#348C58"/>
<path d="M1395.23 1972.52C1418.25 1954.16 1440.02 1936.05 1440.02 1907.56C1440.02 1880.5 1416.9 1862.8 1395.03 1845.38C1371.93 1863.79 1350.04 1881.9 1350.02 1910.46V1910.51C1350.04 1937.48 1373.02 1955.13 1394.81 1972.49C1372.39 1990.34 1350.02 2008.24 1350.02 2036H1440V2035.98C1440 2008.26 1417.65 1990.39 1395.23 1972.52Z" fill="#348C58"/>
</svg>
