<svg width="1228" height="443" viewBox="0 0 1228 443" fill="none" xmlns="http://www.w3.org/2000/svg">
<g clip-path="url(#clip0_555_30027)">
<path d="M197.854 61.6338C171.569 61.6338 150.146 83.0833 150.146 109.627C150.146 136.171 171.569 157.62 197.854 157.62C224.138 157.62 245.561 136.171 245.561 109.627C245.561 83.0833 224.138 61.6338 197.854 61.6338ZM197.854 141.399C181.597 141.399 168.378 127.055 168.378 109.493C168.378 91.9312 181.597 77.5869 197.854 77.5869C214.11 77.5869 227.329 91.9312 227.329 109.493C227.329 127.055 214.11 141.399 197.854 141.399Z" fill="#444449"/>
<path d="M197.853 125.312C192.536 125.312 186.61 118.609 186.61 109.493C186.61 100.511 192.536 93.6738 197.853 93.6738C203.171 93.6738 209.097 100.377 209.097 109.493C209.097 118.609 203.171 125.312 197.853 125.312Z" fill="#444449"/>
<path d="M357.08 144.215C337.785 124.24 337.785 94.7469 357.08 74.7721C358.751 73.0293 359.663 70.7503 359.207 68.2031C358.6 64.8517 355.561 62.1705 351.762 61.6342C348.42 61.098 345.229 62.3045 343.254 64.3154C326.693 81.475 296.611 81.475 279.898 64.3154C277.923 62.3045 274.884 61.098 271.39 61.6342C267.591 62.1705 264.553 64.8517 263.945 68.2031C263.489 70.7503 264.401 73.0293 266.072 74.7721C285.367 94.7469 285.367 124.24 266.072 144.215C264.401 145.958 263.489 148.237 263.945 150.784C264.553 154.135 267.591 156.816 271.39 157.353C274.732 157.889 277.923 156.682 279.898 154.672C296.459 137.512 326.541 137.512 343.254 154.672C345.229 156.682 348.268 157.889 351.762 157.353C355.561 156.816 358.6 154.135 359.207 150.784C359.511 148.237 358.751 145.958 357.08 144.215Z" fill="#444449"/>
<path d="M236.445 229.611H206.21C203.475 229.611 201.044 230.683 199.221 232.426L166.099 266.745C162.757 270.097 156.983 270.365 153.185 267.55C149.387 264.6 149.083 259.506 152.273 256.155L180.533 226.796C183.42 223.846 183.42 219.422 180.533 216.339L152.425 186.98C149.083 183.628 149.539 178.534 153.337 175.585C157.135 172.635 162.909 173.038 166.251 176.389L199.373 210.708C201.044 212.451 203.627 213.524 206.362 213.524H236.597C241.611 213.524 245.713 217.143 245.713 221.567C245.561 225.991 241.459 229.611 236.445 229.611Z" fill="#444449"/>
<path d="M582.246 96.6238L564.166 71.8228C557.785 62.9749 545.63 59.3553 534.843 62.8409L507.95 71.5547C497.923 74.7721 491.086 83.6201 491.086 93.4064V125.715C491.086 135.501 497.771 144.349 507.95 147.566L534.843 156.28C545.63 159.766 557.785 156.146 564.166 147.298L582.246 122.497C587.867 114.588 587.867 104.399 582.246 96.6238ZM566.901 113.649L548.82 138.45C547.453 140.193 545.326 141.4 543.199 141.4C542.439 141.4 541.832 141.266 541.072 141.132L514.18 132.418C511.293 131.479 509.318 128.798 509.318 125.715V93.4064C509.318 90.323 511.293 87.6419 514.18 86.7034L541.072 77.9896C541.832 77.7215 542.439 77.7215 543.199 77.7215C545.326 77.7215 547.453 78.7939 548.82 80.6708L566.901 105.472C568.724 107.885 568.724 111.236 566.901 113.649Z" fill="#444449"/>
<path d="M113.532 380.695C88.6146 389.945 25.4102 323.72 38.1727 299.455C46.2251 284.173 88.0069 278.006 113.532 299.455C144.222 325.329 131.004 374.261 113.532 380.695Z" fill="#444449"/>
<path d="M114.898 178.936C107.605 171.563 97.4254 172.233 90.8923 178.132C87.2458 181.349 81.3204 181.349 77.674 178.132C70.9889 172.367 60.8094 171.563 53.6685 178.936C43.0331 189.795 36.5 204.943 36.5 221.567C36.5 238.19 43.0331 253.339 53.5166 264.198C60.8094 271.571 70.9889 270.901 77.5221 265.002C81.1685 261.785 87.0939 261.785 90.7403 265.002C97.4254 270.767 107.605 271.571 114.746 264.198C125.229 253.339 131.762 238.19 131.762 221.567C131.762 204.943 125.381 189.795 114.898 178.936ZM107.605 244.893C105.326 248.781 100.008 250.39 95.4503 248.513C91.9558 247.172 88.1575 246.368 84.2072 246.368C80.2569 246.368 76.4586 247.038 72.9641 248.513C68.4061 250.256 63.0884 248.781 60.8094 244.893C56.8591 237.922 54.732 229.879 54.732 221.567C54.732 213.255 56.8591 205.078 60.8094 198.24C63.0884 194.353 68.4061 192.744 72.9641 194.621C76.4586 195.961 80.2569 196.766 84.2072 196.766C88.1575 196.766 91.9558 196.096 95.4503 194.621C100.008 192.878 105.326 194.353 107.605 198.24C111.555 205.212 113.682 213.255 113.682 221.567C113.682 229.879 111.555 237.922 107.605 244.893Z" fill="#444449"/>
<path d="M279.898 264.868C294.028 274.118 313.019 266.879 318.337 264.868C344.47 254.948 361.79 226.929 356.776 219.154C352.674 212.853 337.329 225.857 318.337 219.154C291.597 209.636 289.014 172.233 279.898 173.44C267.439 175.317 251.03 246.1 279.898 264.868ZM282.177 220.092C282.329 217.143 286.431 215.937 288.406 218.216C294.18 224.784 301.624 230.549 311.5 234.169C315.147 235.509 318.793 236.314 322.743 236.85C325.63 237.252 326.693 240.469 324.566 242.212C320.768 245.43 316.21 248.245 311.196 250.122C308.765 251.06 302.536 253.473 296.763 253.473C293.42 253.473 291.749 252.669 290.837 251.999C286.279 249.049 281.417 238.995 282.177 220.092Z" fill="#444449"/>
<path d="M584.828 212.183C580.726 195.292 570.547 186.98 566.445 183.629C550.036 170.223 527.549 170.223 511.141 183.629C507.038 186.98 496.859 195.292 492.757 212.183C489.566 225.455 491.845 236.85 492.757 240.738C495.34 252.401 502.48 270.097 509.773 269.293C517.37 268.488 516.762 248.111 529.677 240.738C535.146 237.521 542.287 237.252 548.061 240.738C560.215 248.111 559 267.952 566.445 269.293C573.737 270.633 581.942 253.608 584.828 240.738C585.588 237.387 588.171 225.857 584.828 212.183ZM568.116 222.908C568.42 227.466 562.646 230.147 558.392 227.6C558.392 227.6 558.392 227.6 558.24 227.466C552.467 223.981 545.782 222.104 538.793 222.104C531.956 222.104 525.27 223.847 519.497 227.198C519.345 227.332 519.193 227.466 518.889 227.466C514.635 230.013 509.014 227.198 509.317 222.774C509.469 220.495 509.773 217.948 510.381 215.401C513.268 203.469 520.105 197.973 523.295 195.292C527.853 191.538 533.171 189.527 538.489 189.527C543.806 189.527 549.124 191.538 553.682 195.292C557.025 197.973 563.862 203.604 566.596 215.401C567.508 217.546 567.964 220.093 568.116 222.908Z" fill="#444449"/>
<path d="M416.03 115.928V149.041C416.03 153.465 419.829 157.353 424.843 157.353C430.008 157.487 434.262 153.867 434.262 149.309V115.794C434.262 112.04 437.301 108.689 441.403 107.885C459.787 104.533 472.854 95.6852 472.854 85.3626C472.854 72.2248 451.431 61.5 425.146 61.5C398.862 61.5 377.439 72.2248 377.439 85.4966C377.439 95.8192 390.506 104.667 408.889 108.019C412.992 108.823 416.03 112.174 416.03 115.928ZM425.146 77.4531C430.16 77.4531 434.262 81.0727 434.262 85.4966C434.262 89.9206 430.16 93.5402 425.146 93.5402C420.133 93.5402 416.03 89.9206 416.03 85.4966C416.03 81.0727 420.133 77.4531 425.146 77.4531Z" fill="#444449"/>
<path d="M152.577 342.22L155.312 346.912C159.262 353.481 167.315 357.503 175.975 357.503C184.787 357.503 192.688 361.659 196.638 368.094L198.309 370.775C202.26 377.344 210.312 381.366 218.972 381.366H219.276C228.088 381.366 235.989 377.21 239.939 370.775L242.674 366.083C246.017 360.586 246.017 354.151 242.674 348.655L238.724 342.086C235.381 336.59 235.381 330.155 238.724 324.658L242.674 318.089C246.017 312.593 246.017 306.158 242.674 300.662L239.939 295.97C235.989 289.401 227.937 285.379 219.276 285.379H218.972C210.16 285.379 202.26 289.535 198.309 295.97L196.638 298.651C192.688 305.22 184.635 309.242 175.975 309.242C167.163 309.242 159.262 313.397 155.312 319.832L152.577 324.524C149.387 330.289 149.387 336.724 152.577 342.22ZM170.354 329.753L171.569 327.742C172.329 326.535 174.152 325.597 176.127 325.597C191.624 325.597 205.754 318.223 212.895 306.426L214.566 303.745C215.326 302.539 217.149 301.6 219.124 301.6H219.428C221.403 301.6 223.227 302.404 223.986 303.745L225.202 305.756C226.569 308.169 226.569 310.984 225.202 313.263L222.771 317.285C216.693 327.474 216.693 339.673 222.771 349.727L225.202 353.749C226.569 356.162 226.569 358.978 225.202 361.257L223.986 363.267C223.227 364.474 221.403 365.412 219.428 365.412H219.124C217.149 365.412 215.326 364.608 214.566 363.267L212.895 360.586C205.754 348.789 191.624 341.416 176.127 341.416C174.152 341.416 172.329 340.611 171.569 339.271L170.354 337.26C168.834 334.981 168.834 332.166 170.354 329.753Z" fill="#444449"/>
<path d="M581.942 309.108L564.014 291.01C560.519 287.525 555.506 285.514 550.34 285.514H527.246C521.928 285.514 517.066 287.525 513.572 291.01L495.644 309.108C492.757 312.057 491.086 315.811 491.086 319.699V347.315C491.086 351.203 492.757 354.956 495.644 357.906L513.572 376.004C517.066 379.489 522.08 381.5 527.246 381.5H550.188C555.506 381.5 560.367 379.489 563.862 376.004L581.79 357.906C584.677 354.956 586.348 351.203 586.348 347.315V319.699C586.5 315.811 584.981 312.057 581.942 309.108ZM563.71 352.007L555.658 360.051C552.163 363.536 547.149 365.547 541.983 365.547H535.45C530.133 365.547 525.271 363.536 521.776 360.051L513.724 352.007C510.837 349.058 509.166 345.304 509.166 341.416V325.866C509.166 321.978 510.837 318.224 513.724 315.275L521.776 307.231C525.271 303.746 530.285 301.735 535.45 301.735H541.983C547.301 301.735 552.163 303.746 555.658 307.231L563.71 315.275C566.597 318.224 568.268 321.978 568.268 325.866V341.416C568.268 345.17 566.749 349.058 563.71 352.007Z" fill="#444449"/>
<path d="M424.843 173.574C401.293 173.574 376.68 186.712 377.135 197.571C377.591 208.028 400.989 210.843 400.989 221.568C400.989 232.292 377.591 235.108 377.135 245.564C376.528 256.423 401.293 269.561 424.843 269.561C444.898 269.561 472.094 260.043 472.55 245.564C472.854 235.108 448.696 232.292 448.696 221.568C448.696 210.843 472.094 208.028 472.55 197.571C473.006 186.712 448.24 173.574 424.843 173.574Z" fill="#444449"/>
<path d="M358.599 369.569L337.785 348.253C335.202 345.706 337.329 341.55 341.279 341.55H350.091H351.611V341.416C355.865 340.746 359.207 337.528 359.207 333.507C359.207 329.485 355.865 326.267 351.611 325.597H329.732C324.718 325.597 320.616 321.978 320.616 317.554V293.691V292.35H320.464C319.704 288.597 316.058 285.647 311.5 285.647C306.942 285.647 303.296 288.597 302.536 292.35H302.384V317.554C302.384 321.978 298.282 325.597 293.268 325.597H271.39V325.731C267.135 326.402 263.793 329.619 263.793 333.641C263.793 337.663 267.135 340.88 271.39 341.55V341.684H272.909H281.721C285.671 341.684 287.646 345.706 285.216 348.387L264.401 369.569L264.704 369.703C263.945 371.177 263.489 373.054 263.945 374.931C264.704 378.283 267.895 380.83 271.693 381.232C274.124 381.5 276.251 380.964 278.075 379.891L278.378 380.025L304.663 352.945C308.309 349.192 314.843 349.192 318.489 352.945L342.191 377.344C342.798 378.283 343.558 379.087 344.47 379.757L344.774 380.025C346.597 381.098 348.876 381.768 351.307 381.5C355.105 381.098 358.448 378.417 359.055 375.065C359.511 373.188 359.055 371.311 358.144 369.837L358.599 369.569Z" fill="#444449"/>
<path d="M425.146 304.818C451.494 304.818 472.854 300.497 472.854 295.166C472.854 289.835 451.494 285.514 425.146 285.514C398.798 285.514 377.439 289.835 377.439 295.166C377.439 300.497 398.798 304.818 425.146 304.818Z" fill="#444449"/>
<path d="M424.843 381.635C430.884 381.635 435.782 377.313 435.782 371.982C435.782 366.652 430.884 362.33 424.843 362.33C418.801 362.33 413.903 366.652 413.903 371.982C413.903 377.313 418.801 381.635 424.843 381.635Z" fill="#444449"/>
<path d="M425.147 343.293C440.922 343.293 453.71 338.971 453.71 333.641C453.71 328.31 440.922 323.988 425.147 323.988C409.371 323.988 396.583 328.31 396.583 333.641C396.583 338.971 409.371 343.293 425.147 343.293Z" fill="#444449"/>
<path d="M132.218 149.577C132.218 154.001 128.116 157.487 123.102 157.487C122.95 157.487 122.95 157.487 122.798 157.487L105.326 157.621C105.326 157.621 105.326 157.621 105.174 157.621C100.16 157.621 96.058 154.001 96.058 149.577C96.058 145.153 100.16 141.534 105.022 141.534H109.276C111.707 141.534 113.834 139.657 113.834 137.512V81.6089C113.834 79.3299 111.859 77.5871 109.276 77.5871H70.837C67.1906 77.5871 65.0635 81.0727 67.0386 83.7539L82.3839 105.203C83.2955 106.41 83.7513 107.885 83.7513 109.493C83.7513 111.102 83.2955 112.577 82.3839 113.783L53.6685 153.733C51.6933 156.414 48.0469 158.023 44.0966 157.218C40.7541 156.548 38.0193 154.269 37.2596 151.32C36.6519 149.041 37.1077 146.762 38.4751 145.019L64.1519 109.359L38.3231 73.8335C36.8038 71.8226 36.348 69.2754 37.5635 66.4602C38.7789 63.5109 42.2734 61.5 45.9198 61.5H123.102C128.116 61.5 132.218 65.1196 132.218 69.5436V149.577Z" fill="#444449"/>
</g>
<g clip-path="url(#clip1_555_30027)">
<path d="M1091.28 293.594C1091.28 298.016 1087.67 301.634 1083.25 301.634H1015.19C1010.76 301.634 1007.15 298.016 1007.15 293.594C1007.15 289.172 1010.76 285.554 1015.19 285.554H1083.25C1087.67 285.554 1091.28 289.038 1091.28 293.594Z" fill="#444449"/>
<path d="M1091.28 373.326C1091.28 377.748 1087.67 381.367 1083.25 381.367H1015.19C1010.76 381.367 1007.15 377.748 1007.15 373.326C1007.15 368.904 1010.76 365.286 1015.19 365.286H1083.25C1087.67 365.286 1091.28 368.904 1091.28 373.326Z" fill="#444449"/>
<path d="M1070.25 333.393C1070.25 337.815 1066.63 341.433 1062.21 341.433H1036.22C1031.8 341.433 1028.18 337.815 1028.18 333.393C1028.18 328.971 1031.8 325.353 1036.22 325.353H1062.21C1066.63 325.353 1070.25 328.971 1070.25 333.393Z" fill="#444449"/>
<path d="M822.793 205.553C831.672 205.553 838.87 198.354 838.87 189.473C838.87 180.592 831.672 173.393 822.793 173.393C813.914 173.393 806.716 180.592 806.716 189.473C806.716 198.354 813.914 205.553 822.793 205.553Z" fill="#444449"/>
<path d="M874.776 269.339C883.656 269.339 890.854 262.139 890.854 253.258C890.854 244.377 883.656 237.178 874.776 237.178C865.897 237.178 858.699 244.377 858.699 253.258C858.699 262.139 865.897 269.339 874.776 269.339Z" fill="#444449"/>
<path d="M874.776 205.687C883.619 205.687 890.854 198.451 890.854 189.607C890.854 180.763 883.619 173.526 874.776 173.526C865.934 173.526 858.699 180.763 858.699 189.607C858.699 198.451 865.934 205.687 874.776 205.687Z" fill="#444449"/>
<path d="M822.793 269.339C831.672 269.339 838.87 262.139 838.87 253.258C838.87 244.377 831.672 237.178 822.793 237.178C813.914 237.178 806.716 244.377 806.716 253.258C806.716 262.139 813.914 269.339 822.793 269.339Z" fill="#444449"/>
<path d="M848.785 205.285C839.942 205.285 832.707 212.521 832.707 221.366C832.707 230.21 839.942 237.446 848.785 237.446C857.627 237.446 864.862 230.21 864.862 221.366C864.862 212.521 857.627 205.285 848.785 205.285Z" fill="#444449"/>
<path d="M790.638 83.0745C789.834 71.1482 771.345 61.5 748.569 61.5C725.793 61.5 707.304 71.1482 706.5 83.0745V135.068C706.5 147.396 725.391 157.446 748.569 157.446C771.747 157.446 790.638 147.396 790.638 135.068V83.0745ZM731.822 79.9925C736.109 78.6524 741.736 77.5804 748.569 77.5804C755.402 77.5804 761.029 78.6524 765.316 79.9925C769.068 81.1985 769.068 86.4246 765.316 87.6306C761.029 88.9707 755.402 90.0427 748.569 90.0427C741.736 90.0427 736.109 88.9707 731.822 87.6306C728.07 86.5586 728.07 81.1985 731.822 79.9925ZM765.316 138.82C761.029 140.16 755.402 141.232 748.569 141.232C741.736 141.232 736.109 140.16 731.822 138.82C728.07 137.614 728.07 132.388 731.822 131.182C736.109 129.842 741.736 128.77 748.569 128.77C755.402 128.77 761.029 129.842 765.316 131.182C769.068 132.388 769.068 137.614 765.316 138.82Z" fill="#444449"/>
<path d="M1090.35 129.708C1090.35 129.574 1090.35 129.574 1090.35 129.708L1074 99.0209C1071.99 95.2689 1076.01 90.9807 1079.9 92.8568C1081.37 93.5268 1083.11 93.7948 1084.99 93.3928C1088.34 92.7228 1090.88 89.9087 1091.28 86.5586C1091.69 82.9405 1089.68 79.7245 1086.73 78.2504L1052.7 62.304C1051.63 61.768 1050.56 61.5 1049.35 61.5C1048.14 61.5 1046.94 61.768 1046 62.304L1011.97 78.2504C1009.02 79.7245 1007.01 82.9405 1007.41 86.5586C1007.82 89.9087 1010.36 92.7228 1013.71 93.3928C1015.59 93.7948 1017.33 93.5268 1018.8 92.8568C1022.69 90.9807 1026.71 95.2689 1024.7 99.0209L1008.35 129.708C1008.35 129.708 1008.35 129.708 1008.35 129.842C1007.55 131.316 1007.15 133.192 1007.55 135.068C1008.22 138.418 1010.9 140.964 1014.25 141.5C1017.86 142.036 1021.08 140.16 1022.55 137.346L1033 117.781C1035.15 113.627 1041.44 115.235 1041.44 119.925V149.54C1041.44 155.302 1047.61 159.724 1053.77 156.508C1056.32 155.168 1057.66 152.354 1057.52 149.54V119.925C1057.52 115.235 1063.82 113.627 1065.96 117.781L1076.41 137.346C1077.89 140.16 1081.1 142.036 1084.72 141.5C1088.07 140.964 1090.75 138.418 1091.42 135.068C1091.55 133.058 1091.15 131.182 1090.35 129.708Z" fill="#444449"/>
<path d="M882.547 61.5C878.662 61.5 875.178 64.1801 874.374 67.9322C873.704 71.1482 872.9 74.2303 871.963 77.3124C870.355 82.8065 863.656 84.9506 858.967 81.6005C855.483 79.0544 852 77.7144 848.784 77.7144C845.569 77.7144 842.086 79.0544 838.602 81.6005C833.913 84.9506 827.214 82.8065 825.606 77.3124C824.668 74.2303 823.865 71.1482 823.195 67.9322C822.391 64.1801 819.041 61.5 815.022 61.5C809.797 61.5 805.912 66.0561 806.849 71.0142C809.395 84.4146 813.146 96.3409 817.434 106.391C818.238 108.267 818.238 110.545 817.434 112.421C813.146 122.472 809.529 134.398 806.849 147.798C805.912 152.756 809.931 157.312 815.022 157.312C818.907 157.312 822.391 154.632 823.195 150.88C823.865 147.664 824.668 144.582 825.606 141.5C827.214 136.006 833.913 133.862 838.602 137.212C842.086 139.758 845.569 141.098 848.784 141.098C852 141.098 855.483 139.758 858.967 137.212C863.656 133.862 870.355 136.006 871.963 141.5C872.9 144.582 873.704 147.664 874.374 150.88C875.178 154.632 878.662 157.312 882.547 157.312C887.772 157.312 891.657 152.756 890.72 147.798C888.174 134.398 884.423 122.472 880.135 112.421C879.331 110.545 879.331 108.267 880.135 106.391C884.423 96.3409 888.04 84.4146 890.72 71.0142C891.657 66.0561 887.638 61.5 882.547 61.5ZM841.684 115.771C841.282 114.967 840.746 114.297 840.21 113.359C838.87 110.947 838.87 107.999 840.21 105.587C840.746 104.783 841.148 103.979 841.684 103.175C844.899 97.9489 852.67 97.9489 856.019 103.175C856.421 103.979 856.957 104.649 857.493 105.587C858.833 107.999 858.833 110.947 857.493 113.359C856.957 114.163 856.555 114.967 856.019 115.771C852.67 120.864 844.899 120.864 841.684 115.771Z" fill="#444449"/>
<path d="M748.569 205.286V205.152C741.334 205.152 734.367 206.626 728.472 209.172C725.793 210.378 722.577 208.368 722.577 205.42C722.577 198.988 730.214 191.886 742.004 189.876C745.889 189.206 748.569 185.856 748.569 181.835C748.569 176.743 744.014 172.991 739.191 173.795C720.434 176.877 706.5 189.876 706.5 205.286C706.5 223.242 725.391 237.715 748.569 237.715C755.804 237.715 762.637 236.241 768.532 233.829C771.345 232.623 774.561 234.633 774.561 237.715C774.561 244.147 766.924 251.249 755.134 253.259C751.249 253.929 748.569 257.279 748.569 261.299C748.569 266.392 753.124 270.144 757.948 269.34C776.704 265.99 790.638 253.125 790.638 237.715C790.638 219.758 771.747 205.286 748.569 205.286Z" fill="#444449"/>
<path d="M869.819 333.393C869.819 333.929 870.221 334.465 870.757 334.733L886.298 342.103C888.978 343.443 890.987 346.123 890.987 349.34V373.326C890.987 377.748 887.37 381.366 882.949 381.366C880.537 381.366 878.26 380.294 876.786 378.552L853.876 351.618C852.67 350.144 850.794 349.34 848.918 349.34C847.043 349.34 845.167 350.144 843.961 351.618L821.185 378.418L821.051 378.552C819.577 380.294 817.434 381.366 814.888 381.366C810.467 381.366 806.849 377.748 806.849 373.326V349.34C806.849 346.123 808.725 343.309 811.539 342.103L827.08 334.733C827.616 334.465 828.018 333.929 828.018 333.393C828.018 332.857 827.616 332.321 827.08 332.053L811.539 324.683C808.859 323.343 806.849 320.663 806.849 317.447V293.46C806.849 289.038 810.467 285.42 814.888 285.42C817.3 285.42 819.577 286.492 821.051 288.234L843.961 315.169C845.167 316.643 847.043 317.447 848.918 317.447C850.794 317.447 852.67 316.643 853.876 315.169L876.652 288.368L876.786 288.234C878.26 286.492 880.403 285.42 882.949 285.42C887.37 285.42 890.987 289.038 890.987 293.46V317.447C890.987 320.663 889.112 323.477 886.298 324.683L870.757 332.053C870.087 332.321 869.819 332.857 869.819 333.393Z" fill="#444449"/>
<path d="M949 141.366H969.499C972.312 141.366 974.724 139.758 976.063 137.346C977.537 134.934 980.217 133.326 983.298 133.46C987.72 133.594 991.069 137.48 991.069 141.768V149.273C991.069 153.695 987.452 157.313 983.03 157.313H949C948.732 157.313 948.464 157.313 948.062 157.313C936.808 156.777 927.965 146.325 927.965 133.326C927.965 120.462 936.942 109.876 948.062 109.34C948.33 109.34 948.598 109.34 949 109.34H970.034V109.206C972.312 109.206 974.992 105.722 974.992 101.299C974.992 96.8773 972.312 93.3933 970.034 93.3933H930.511C926.358 93.3933 923.008 96.7433 923.008 100.897C923.008 105.32 919.659 109.206 915.238 109.206C910.682 109.34 906.931 105.722 906.931 101.165V85.4871V69.9427C906.931 65.5206 910.28 61.6345 914.702 61.6345C919.257 61.5005 923.008 65.1186 923.008 69.6747C923.008 74.0968 926.492 77.5809 930.913 77.5809H970.034C970.302 77.5809 970.57 77.5809 970.972 77.5809C982.226 78.1169 991.069 88.5691 991.069 101.567C991.069 114.03 982.762 124.348 972.044 125.42C971.374 125.554 970.704 125.688 970.034 125.688H949C946.722 125.688 944.043 129.172 944.043 133.594C944.043 137.882 946.722 141.366 949 141.366Z" fill="#444449"/>
<path d="M1184 61.4999C1181.72 61.3659 1179.71 62.1699 1178.1 63.5099C1175.82 65.52 1172.74 66.056 1169.93 64.9839C1163.9 62.8399 1156.93 61.4999 1149.43 61.4999C1141.93 61.4999 1134.96 62.8399 1128.93 65.1179C1126.12 66.19 1123.04 65.52 1120.76 63.6439C1119.15 62.3039 1117.14 61.4999 1114.86 61.6339C1110.58 61.9019 1107.36 65.788 1107.36 70.0761C1107.36 76.9102 1107.36 89.6406 1107.36 89.6406V129.574V149.138C1107.36 153.426 1110.58 157.178 1114.86 157.58C1117.14 157.714 1119.15 156.91 1120.76 155.57C1123.04 153.56 1126.12 153.024 1128.93 153.962C1134.96 156.24 1142.06 157.58 1149.43 157.58C1156.93 157.58 1163.9 156.24 1169.93 153.962C1172.74 152.89 1175.82 153.56 1178.1 155.57C1179.71 156.91 1181.72 157.714 1184 157.58C1188.28 157.312 1191.5 153.426 1191.5 149.138C1191.5 134.264 1191.5 84.9504 1191.5 70.0761C1191.5 65.654 1188.28 61.9019 1184 61.4999ZM1175.42 129.44C1175.42 133.594 1165.51 141.366 1149.43 141.366C1133.35 141.366 1123.44 133.594 1123.44 129.44C1123.44 126.893 1127.19 122.873 1133.89 120.327C1138.31 118.585 1141.39 114.297 1141.39 109.473C1141.39 104.649 1138.31 100.361 1133.89 98.6188C1127.19 95.9387 1123.44 92.0526 1123.44 89.5066C1123.44 85.3525 1133.35 77.5803 1149.43 77.5803C1165.51 77.5803 1175.42 85.3525 1175.42 89.5066C1175.42 92.0526 1171.67 96.0727 1164.97 98.6188C1160.55 100.361 1157.47 104.649 1157.47 109.473C1157.47 114.297 1160.55 118.585 1164.97 120.327C1171.67 122.873 1175.42 126.893 1175.42 129.44Z" fill="#444449"/>
<path d="M1091.28 205.419C1091.28 199.657 1085.12 195.235 1078.96 198.451C1076.41 199.791 1075.07 202.605 1075.21 205.419V249.372C1075.21 251.517 1073.47 253.393 1071.19 253.393H1027.11C1024.97 253.393 1023.09 251.651 1023.09 249.372C1023.09 247.228 1024.83 245.352 1027.11 245.352H1049.08C1053.64 245.62 1057.39 241.868 1057.12 237.312V205.419C1057.39 200.997 1053.9 197.379 1049.48 197.379H1049.08H1027.11C1024.97 197.379 1023.09 195.637 1023.09 193.359V181.433C1023.09 178.083 1020.95 174.867 1017.73 173.795C1012.1 172.053 1007.01 176.073 1007.01 181.433V205.285C1006.74 209.707 1010.23 213.326 1014.65 213.326H1015.05H1037.02C1039.17 213.326 1041.04 215.068 1041.04 217.346V225.252C1041.04 227.396 1039.3 229.272 1037.02 229.272H1015.05H1014.65C1010.23 229.272 1006.74 232.89 1007.01 237.312V261.299C1006.74 265.855 1010.5 269.607 1015.05 269.339H1083.11C1087.53 269.607 1091.15 266.123 1091.15 261.701V261.299V205.419H1091.28Z" fill="#444449"/>
<path d="M1191.5 181.567C1191.5 177.144 1187.88 173.526 1183.46 173.526C1179.04 173.526 1175.42 177.144 1175.42 181.567V184.113C1175.42 189.473 1170.33 193.359 1165.11 191.885C1160.28 190.411 1154.92 189.607 1149.3 189.607C1126.12 189.607 1107.23 203.945 1107.23 221.634C1107.23 221.634 1107.23 221.634 1107.23 221.768V261.701C1107.23 265.051 1109.37 268.267 1112.59 269.339C1118.08 271.081 1123.31 267.061 1123.31 261.701V259.02C1123.31 253.66 1128.4 249.774 1133.62 251.248C1138.44 252.722 1143.8 253.526 1149.43 253.526C1172.61 253.526 1191.5 239.188 1191.5 221.5V181.567ZM1149.43 237.312C1134.16 237.312 1123.44 229.004 1123.44 221.366C1123.44 213.861 1134.16 205.419 1149.43 205.419C1164.7 205.419 1175.42 213.727 1175.42 221.366C1175.42 228.87 1164.7 237.312 1149.43 237.312Z" fill="#444449"/>
<path d="M1149.43 229.539C1153.87 229.539 1157.47 225.94 1157.47 221.499C1157.47 217.059 1153.87 213.459 1149.43 213.459C1144.99 213.459 1141.39 217.059 1141.39 221.499C1141.39 225.94 1144.99 229.539 1149.43 229.539Z" fill="#444449"/>
<path d="M790.638 312.757C790.638 309.004 787.959 305.788 784.475 304.984L750.445 296.944C749.909 296.81 749.239 296.676 748.569 296.676C744.148 296.676 740.53 300.294 740.53 304.582L740.396 318.385C740.396 321.065 737.717 322.941 735.171 322.137L725.257 318.921C723.649 318.385 722.577 316.911 722.577 315.169V293.594C722.711 290.78 721.372 287.966 718.826 286.626C712.663 283.276 706.5 287.698 706.5 293.594V323.879C706.5 327.497 708.778 330.445 711.993 331.517H712.127L745.756 342.639C746.559 342.907 747.363 343.041 748.301 343.041C752.722 343.041 756.34 339.423 756.34 335.135L756.474 319.859C756.474 317.313 758.885 315.437 761.297 315.973L771.479 318.385C773.221 318.787 774.561 320.395 774.561 322.271V358.318C774.561 360.864 772.149 362.74 769.738 362.204L750.177 357.648C748.569 357.246 746.693 357.38 744.818 358.318C742.406 359.658 740.53 362.07 740.396 364.884C740.128 368.904 742.808 372.388 746.559 373.326L781.662 381.634V381.5C782.064 381.5 782.331 381.634 782.733 381.634C787.155 381.634 790.772 378.016 790.772 373.594V312.757H790.638Z" fill="#444449"/>
<path d="M906.931 358.988C905.993 368.234 925.822 376.542 927.965 377.346C948.598 385.788 967.489 378.418 970.034 377.346C972.044 376.542 992.007 368.1 991.069 358.988C990.131 350.01 970.034 348.133 970.034 340.629C970.034 332.991 990.667 330.713 991.069 322.271C991.337 317.045 983.432 313.963 970.034 303.912C956.101 293.46 955.565 285.956 949 285.554C942.703 285.152 939.622 291.986 927.965 303.912C915.639 316.509 907.333 316.643 906.931 322.271C906.395 330.713 927.831 332.991 927.831 340.629C927.831 348.133 907.869 350.01 906.931 358.988ZM934.53 323.209C933.459 322.405 933.325 320.797 934.396 319.993C936.004 318.519 937.746 317.045 939.488 315.169C942.301 312.221 944.713 309.675 946.722 307.396C947.526 306.458 949 306.458 949.804 307.396C952.483 310.211 955.967 313.427 960.522 316.911C961.728 317.849 962.934 318.653 964.005 319.457C965.211 320.261 965.211 322.003 964.005 322.807C958.78 326.559 953.957 332.187 953.957 340.763C953.957 349.607 959.048 355.236 964.407 358.988C965.747 359.926 965.613 361.936 964.005 362.606C964.005 362.606 964.005 362.606 963.872 362.606C962.666 363.008 956.637 365.42 948.464 365.42C943.373 365.42 938.416 364.482 933.86 362.606H933.726C932.253 361.936 931.985 359.926 933.325 358.988C938.684 355.236 943.775 349.607 943.775 340.763C943.909 332.455 939.488 326.961 934.53 323.209Z" fill="#444449"/>
<path d="M978.609 179.155C977.002 173.795 971.107 171.651 966.819 175.001L949 188.669L931.181 175.001C927.028 171.785 921.133 173.929 919.391 179.155L907.199 218.686C906.663 220.428 906.663 222.304 907.199 224.046L919.391 263.577C920.999 268.937 926.894 271.082 931.181 267.731L949 254.063L966.819 267.865C970.973 271.082 976.868 268.937 978.609 263.711L990.801 224.046C991.337 222.304 991.337 220.428 990.801 218.686L978.609 179.155ZM958.379 239.591L953.421 235.839C950.742 233.829 947.258 233.829 944.579 235.839L939.622 239.591C935.468 242.807 929.573 240.663 927.832 235.437L924.348 224.046C923.812 222.304 923.812 220.428 924.348 218.686L927.832 207.296C929.439 201.936 935.334 199.792 939.488 203.142L944.445 206.894C947.124 208.904 950.608 208.904 953.287 206.894L958.245 203.142C962.398 199.926 968.293 201.936 970.035 207.296L973.518 218.686C974.054 220.428 974.054 222.304 973.518 224.046L970.035 235.437C968.427 240.797 962.666 242.807 958.379 239.591Z" fill="#444449"/>
</g>
<defs>
<clipPath id="clip0_555_30027">
<rect width="550" height="320" fill="white" transform="translate(36.5 61.5)"/>
</clipPath>
<clipPath id="clip1_555_30027">
<rect width="485" height="320" fill="white" transform="translate(706.5 61.5)"/>
</clipPath>
</defs>
</svg>
