<svg width="436" height="219" viewBox="0 0 436 219" fill="none" xmlns="http://www.w3.org/2000/svg">
<g clip-path="url(#clip0_206_23184)">
<path d="M435.913 0H0V219H435.913V0Z" fill="white"/>
<path d="M436 19.3222L435.913 19.5403L416.598 64.422V19.3222L344.048 0H435.913V19.3222H436Z" fill="#2858A4"/>
<path d="M344.048 19.3222H290.638L217.956 0H271.41L344.048 19.3222Z" fill="#2858A4"/>
<path d="M217.956 19.3222H145.275L72.6377 0H145.275L217.956 19.3222Z" fill="#2858A4"/>
<path d="M19.402 18.3627L0 63.5061V0L72.6376 19.3222L19.402 18.3627Z" fill="#2858A4"/>
<path d="M19.3148 63.7676V108.824L0 153.749V108.606L19.3148 63.7676Z" fill="#2858A4"/>
<path d="M88.3772 218.901L0 218.639V199.622L19.3148 154.74V200.494L88.3772 218.901Z" fill="#2858A4"/>
<path d="M216.824 219.452L162.847 219.321L93 200.74H146.41L216.824 219.452Z" fill="#2858A4"/>
<path d="M362.534 218.888L289.155 218.714L218.044 199.74H290.681L362.534 218.888Z" fill="#2858A4"/>
<path d="M436 154.665V199.721H435.913V219L363.319 199.721H416.598L435.913 154.883V154.665H436Z" fill="#2858A4"/>
<path d="M436 64.4219V109.522L435.913 109.74L416.598 154.665V109.522L435.913 64.64V64.4219H436Z" fill="#2858A4"/>
<path d="M38.6296 38.6006V180.486H397.283V38.6006H38.6296ZM207.362 128.713H152.862V128.757H152.818C153.123 131.068 153.821 133.249 154.911 135.299C158.094 141.362 164.634 145.723 173.964 145.723C174.705 145.723 175.577 145.68 176.406 145.593C178.106 145.462 179.85 145.113 181.681 144.633C182.597 144.415 183.469 144.11 184.341 143.761C186.085 143.15 187.872 142.365 189.398 141.493C190.968 140.62 192.407 139.574 193.584 138.439L202.086 150.87C194.761 157.544 183.251 161.077 171.871 161.077C149.504 161.077 132.631 146.029 132.631 122.432C132.631 101.147 148.284 84.0057 170.65 84.0057C176.798 84.0057 182.422 85.3142 187.306 87.7131C188.396 88.2801 189.398 88.8471 190.401 89.4578C192.45 90.7227 194.282 92.2056 195.982 93.9067C197.246 95.128 198.467 96.5237 199.557 98.0067C201.694 100.929 203.438 104.331 204.789 107.995C206.49 112.924 207.449 118.419 207.449 124.482V128.713H207.362ZM264.085 102.892C263.039 102.674 261.774 102.499 260.292 102.456C259.812 102.412 259.289 102.412 258.766 102.412C252.357 102.412 243.855 110.001 240.672 114.756V159.288H221.357V85.8812H240.672V95.9131C241.326 95.128 242.067 94.3429 242.808 93.6014C244.334 92.0312 246.078 90.5918 247.953 89.3269C252.706 86.1865 258.374 84.0929 264.085 84.0929V102.892ZM295.477 159.288H276.162V85.8812H295.477V159.288ZM295.477 76.8961H109.305V159.288H87.5924V76.8961H57.988V57.9228H295.521V76.8961H295.477ZM378.012 159.288H358.697V151.699C353.683 157.631 344.963 161.164 335.458 161.164C328.875 161.164 321.594 158.634 316.536 153.531C312.612 149.562 309.952 143.979 309.952 136.826C309.952 129.847 312.22 124.613 315.751 120.862C315.969 120.557 316.274 120.295 316.58 120.077C321.637 115.192 328.918 113.142 335.502 113.142C337.944 113.142 340.298 113.316 342.565 113.709C348.146 114.712 353.16 116.849 356.735 120.077C357.433 120.687 358.043 121.342 358.741 122.083V112.226C358.741 104.767 352.332 99.9258 342.609 99.9258C334.717 99.9258 327.436 102.805 321.201 108.562L313.876 95.6514C314.443 95.1716 315.01 94.6918 315.577 94.212C317.321 92.8163 319.196 91.595 321.027 90.5046C328.613 86.1429 337.246 84.0929 345.879 84.0929C362.621 84.0929 378.012 90.7663 378.012 111.92V159.288Z" fill="#2858A4"/>
<path d="M358.697 132.595V141.711C355.471 145.941 349.41 148.079 343.176 148.079C338.946 148.079 335.11 146.857 332.537 144.546C330.532 142.757 329.311 140.271 329.311 137.305C329.311 134.557 330.226 132.333 331.752 130.632C331.97 130.283 332.276 130.021 332.581 129.847C335.153 127.491 338.99 126.227 343.219 126.227C346.315 126.227 349.367 126.75 352.114 127.84C353.509 128.364 354.773 129.018 355.863 129.847C356.91 130.588 357.912 131.461 358.697 132.595Z" fill="#2858A4"/>
<path d="M188.657 115.671H152.513C153.428 108.344 158.573 99.4023 170.607 99.4023C183.338 99.4023 188.221 108.693 188.657 115.671Z" fill="#2858A4"/>
</g>
<defs>
<clipPath id="clip0_206_23184">
<rect width="436" height="219" fill="white"/>
</clipPath>
</defs>
</svg>
