<svg width="457" height="201" viewBox="0 0 457 201" fill="none" xmlns="http://www.w3.org/2000/svg">
<path d="M416.27 0H15.14L0 26.93V191.1L15.14 200.72H416.27L456.1 191.35V26.66L416.27 0ZM414.03 1.85L426.62 19.31H387.81L375.22 1.85H414.03ZM386.83 46.11H348.02V20.27H386.83V46.11ZM386.83 47.08V72.92H348.02V47.08H386.83ZM386.83 73.89V82.84H372.75C372.59 82.84 372.42 83.15 372.23 83.77C372.03 84.39 372.02 84.7 372.17 84.7H382.66C383.2 84.7 383.4 84.86 383.24 85.17L378.67 99.73H348.02V98.54L355.16 89.48C356.01 88.39 356.73 87.52 357.32 86.86C357.9 86.2 358.37 85.69 358.72 85.34C359.07 84.99 359.36 84.78 359.59 84.7C359.82 84.62 360.02 84.58 360.17 84.58H369.14C369.29 84.58 369.49 84.27 369.72 83.65C369.95 83.03 369.99 82.72 369.84 82.72H348.02V73.89H386.83ZM300.67 153.34H268.46V127.5H307.27V132.59L300.67 153.33V153.34ZM361.83 153.34H348.01V127.5H369.94L361.83 153.34ZM386.3 127.5H386.82V153.34H378.15L386.3 127.5ZM348.01 126.53V100.69H378.35L370.24 126.53H348.01ZM347.04 100.69V126.53H325.96L346.31 100.69H347.04ZM325.09 124.66L319.73 100.69H343.89L325.08 124.66H325.09ZM308.88 126.53H308.23V123.62L308.88 126.53ZM308.88 127.5L308.22 129.57V127.5H308.88ZM325.27 127.5H347.04V153.34H317.08L325.27 127.5ZM348.01 154.3H361.52L358.76 163.1C358.68 163.41 358.37 163.57 357.83 163.57H348.01V154.3ZM375.07 163.1L377.85 154.3H386.83V163.11C384.69 163.41 382.44 163.57 380.09 163.57H375.66C375.19 163.57 375 163.42 375.08 163.1H375.07ZM386.82 126.52H386.6L386.82 125.83V126.52ZM387.79 154.3H406.59C406.06 154.76 405.52 155.21 404.95 155.65C401.88 157.98 398.27 159.88 394.11 161.36C392.12 162.07 390.01 162.6 387.78 162.97V154.31L387.79 154.3ZM348.01 95.44V84.57H355.61C355.84 84.57 355.98 84.61 356.02 84.69C356.06 84.77 355.98 84.98 355.79 85.33C355.59 85.68 355.27 86.17 354.8 86.79C354.33 87.41 353.63 88.3 352.7 89.47L348.01 95.45V95.44ZM347.04 46.1H308.23V20.27H347.04V46.11V46.1ZM347.04 47.07V72.91H308.23V47.07H347.04ZM347.04 73.88V82.71H346.29C346.13 82.71 345.96 83.02 345.77 83.64C345.58 84.26 345.56 84.57 345.71 84.57H347.04V96.68L344.66 99.72H319.52L316.24 85.04C316.16 84.96 316.18 84.86 316.3 84.75C316.42 84.63 316.59 84.58 316.82 84.58H329.4C329.55 84.58 329.73 84.27 329.92 83.65C330.11 83.03 330.13 82.72 329.98 82.72H308.23V73.89H347.04V73.88ZM307.26 46.1H268.45V20.27H307.26V46.11V46.1ZM307.26 47.07V72.91H268.45V47.07H307.26ZM307.26 73.88V82.71H288.62C288.46 82.71 288.29 83.02 288.1 83.64C287.9 84.26 287.89 84.57 288.04 84.57H298.76C299.3 84.57 299.58 84.73 299.58 85.04L302.87 99.72H270.05L274.65 85.04C274.81 84.73 275.12 84.57 275.58 84.57H285.95C286.1 84.57 286.3 84.26 286.53 83.64C286.76 83.02 286.8 82.71 286.65 82.71H268.46V73.88H307.27H307.26ZM250.27 126.52L241.69 100.68H267.47V101.5L259.6 126.52H250.26H250.27ZM259.3 127.49L255.06 140.96L250.59 127.49H259.3ZM268.45 98.42V84.57H272.08C272.62 84.57 272.82 84.73 272.66 85.04L268.45 98.42ZM267.48 46.1H228.67V20.27H267.48V46.11V46.1ZM267.48 47.07V72.91H228.67V47.07H267.48ZM267.48 73.88V82.71H262.17C262.01 82.71 261.84 83.02 261.65 83.64C261.45 84.26 261.44 84.57 261.59 84.57H267.48V99.71H241.38L236.43 84.8C235.96 83.4 235.3 82.7 234.45 82.7H228.67V73.87H267.48V73.88ZM227.7 46.1H188.89V20.27H227.7V46.11V46.1ZM227.7 47.07V72.91H188.89V47.07H227.7ZM227.7 73.88V82.71H211.85C211.69 82.71 211.5 83.02 211.27 83.64C211.04 84.26 211 84.57 211.15 84.57H220.12C220.59 84.57 220.82 84.73 220.82 85.04L216.19 99.72H188.89V84.78C189.06 84.65 189.29 84.57 189.6 84.57H199.97C200.12 84.57 200.32 84.26 200.55 83.64C200.78 83.02 200.82 82.71 200.67 82.71H188.89V73.88H227.7ZM224.22 99.72H218.08L221.04 90.29L224.21 99.72H224.22ZM148.13 127.5V153.34H109.32V127.5H148.13ZM109.32 126.53V100.69H148.13V126.53H109.32ZM149.11 47.08H187.92V72.92H149.11V47.08ZM187.92 100.69V126.53H175.58L183.73 100.69H187.92ZM184.04 99.72L187.92 87.41V99.72H184.04ZM159.16 126.53H149.11V100.69H167.31L159.16 126.53ZM149.11 154.31H150.4L149.11 158.39V154.31ZM148.14 72.92H129.51L148.14 47.6V72.92ZM149.11 153.34V127.5H158.85L150.7 153.34H149.11ZM175.28 127.5H187.92V153.34H167.13L175.28 127.5ZM188.9 154.3H198.99L196.25 162.99C196.17 163.3 195.86 163.46 195.32 163.46H188.9V154.31V154.3ZM188.9 153.33V127.49H207.44L199.29 153.33H188.9ZM188.9 126.52V100.68H215.9L207.75 126.52H188.9ZM161.18 84.57H171.67C172.21 84.57 172.41 84.73 172.25 85.04L167.62 99.72H149.12V73.88H187.93V82.71H161.88C161.72 82.71 161.53 83.02 161.3 83.64C161.07 84.26 161.03 84.57 161.18 84.57ZM187.93 46.1H149.24L151.82 42.6C155.59 37.32 158.24 34.68 159.74 34.68H175.78C176.03 34.68 176.25 34.18 176.44 33.17C176.63 32.16 176.6 31.66 176.35 31.66H149.13V20.27H187.94V46.11L187.93 46.1ZM149.12 41.02V34.67H151.44C152.45 34.67 152.76 35.08 152.38 35.9C152.06 36.59 150.97 38.31 149.12 41.02ZM148.15 31.65H135.97C135.72 31.65 135.43 32.15 135.12 33.16C134.8 34.17 134.77 34.67 135.03 34.67H148.15V42.44C148.11 42.49 148.08 42.54 148.04 42.59L145.46 46.09H109.33V20.27H148.14V31.66L148.15 31.65ZM144.75 47.07L125.71 72.91H109.34V47.07H144.75ZM125 73.88L109.34 95.12V73.88H125ZM81.45 47.07H108.38V72.91H81.45V47.07ZM81.45 127.49H85.49L81.45 132.97V127.49ZM81.45 126.52V100.68H105.25L86.21 126.52H81.45ZM105.96 99.71H81.45V73.87H108.38V96.43L105.97 99.7L105.96 99.71ZM108.37 46.1H81.44V35.43C81.44 34.93 81.82 34.67 82.57 34.67H97.66C97.91 34.67 98.16 34.17 98.41 33.16C98.66 32.15 98.66 31.65 98.41 31.65H69.54V20.26H108.35V46.1H108.37ZM68.59 31.65H38.62C38.37 31.65 38.08 32.15 37.77 33.16C37.45 34.17 37.42 34.67 37.68 34.67H54.66C55.54 34.67 55.98 34.92 55.98 35.43V46.1H29.75V20.27H68.56V31.66L68.59 31.65ZM55.98 47.07V72.91H29.75V47.07H55.95H55.98ZM55.98 73.88V99.72H29.75V73.88H55.95H55.98ZM55.98 100.69V126.53H29.75V100.69H55.95H55.98ZM55.98 127.5V153.34H29.75V127.5H55.95H55.98ZM55.98 154.3V168.26C55.98 168.51 56.48 168.67 57.49 168.73C58.5 168.79 59.12 168.64 59.38 168.26L68.6 155.73V180.13H29.75V154.29H55.95L55.98 154.3ZM69.56 154.42L69.65 154.3H108.38V180.14H69.57V154.42H69.56ZM70.36 153.33L89.37 127.49H108.38V153.33H70.37H70.36ZM90.08 126.52L108.37 101.66V126.52H90.08ZM128.81 73.88H148.15V99.72H109.8L128.81 73.88ZM109.34 154.3H148.15V161.46L147.67 162.99C147.67 163.3 147.4 163.46 146.85 163.46H136.36C136.21 163.46 136.03 163.79 135.84 164.45C135.65 165.11 135.63 165.44 135.78 165.44H148.14V180.14H109.33V154.3H109.34ZM149.13 165.43H174.71C174.86 165.43 175.02 165.1 175.18 164.44C175.33 163.78 175.33 163.45 175.18 163.45H164.69C164.22 163.45 164.03 163.3 164.11 162.98L166.85 154.29H187.95V163.44H184.97C184.82 163.44 184.62 163.77 184.39 164.43C184.16 165.09 184.12 165.42 184.27 165.42H187.95V180.12H149.14V165.42L149.13 165.43ZM188.91 165.43H208.72C208.87 165.43 209.05 165.1 209.24 164.44C209.43 163.78 209.45 163.45 209.3 163.45H198.81C198.34 163.45 198.15 163.3 198.23 162.98L200.96 154.29H227.72V180.13H188.91V165.43ZM201.27 153.33L209.39 127.49H227.73V153.33H201.28H201.27ZM209.69 126.52L217.81 100.68H224.58L227.73 110.04V126.51H209.7L209.69 126.52ZM233.26 126.52H228.69V112.93L233.26 126.52ZM233.59 127.49L242.28 153.33H228.69V127.49H233.59ZM228.69 154.29H242.6L246.81 166.82C246.96 167.05 247.35 167.15 247.98 167.11C248.6 167.07 248.95 166.97 249.03 166.82L252.96 154.29H267.5V180.13H228.69V154.29ZM253.26 153.32L261.36 127.48H267.5V153.32H253.26ZM261.66 126.51L267.5 107.88V126.51H261.66ZM269.76 100.67H303.11L307.29 119.3V126.51H268.48V104.78L269.77 100.68L269.76 100.67ZM268.47 154.28H300.38L297.62 162.97C297.62 163.28 297.35 163.44 296.8 163.44H286.31C286.15 163.44 285.98 163.77 285.79 164.43C285.59 165.09 285.58 165.42 285.73 165.42H307.29V180.12H268.48V154.28H268.47ZM308.25 165.41H324.53C324.69 165.41 324.86 165.08 325.05 164.42C325.24 163.76 325.26 163.43 325.11 163.43H314.62C314.15 163.43 313.96 163.28 314.04 162.96L316.79 154.27H347.06V163.89C346.99 164.04 346.91 164.22 346.84 164.47C346.65 165.09 346.63 165.4 346.78 165.4H347.06V180.1H308.25V165.4V165.41ZM348.03 165.41H386.84V180.11H348.03V165.41ZM387.81 165.41H410.16C410.39 165.41 410.51 165.29 410.51 165.06L413.96 154.28H426.63V180.12H387.82V165.42L387.81 165.41ZM414.27 153.31L418.9 138.85C418.9 138.7 418.59 138.62 417.97 138.62C417.35 138.62 417 138.7 416.92 138.85C415.99 141.8 414.53 144.75 412.55 147.71C411.2 149.73 409.57 151.59 407.7 153.32H387.81V127.48H426.62V153.32H414.26L414.27 153.31ZM387.81 126.5V122.73L394.77 100.66H426.62V126.5H387.81ZM395.08 99.69L399.67 85.13C399.83 84.82 400.1 84.66 400.49 84.66H410.98C411.13 84.66 411.31 84.35 411.5 83.73C411.69 83.11 411.71 82.8 411.56 82.8H387.82V73.85H426.63V99.69H395.08ZM387.81 72.88V47.04H426.62V72.88H387.81ZM387.81 46.08V20.27H426.62V46.11H387.81V46.08ZM374.24 1.85L386.83 19.31H348.02L335.43 1.85H374.24ZM334.46 1.85L347.05 19.31H308.24L295.65 1.85H334.46ZM294.68 1.85L307.27 19.31H268.46L255.87 1.85H294.68ZM254.9 1.85L267.49 19.31H228.68L216.09 1.85H254.9ZM215.12 1.85L227.71 19.31H188.9L176.3 1.85H215.11H215.12ZM175.34 1.85L187.93 19.31H149.12L136.52 1.85H175.33H175.34ZM135.56 1.85L148.15 19.31H109.34L96.73 1.85H135.54H135.56ZM95.78 1.85L108.37 19.31H69.56L56.95 1.85H95.76H95.78ZM56 1.85L68.59 19.31H29.75L17.17 1.85H55.98H56ZM16.2 1.85L28.79 19.31L1.59 27.68L16.2 1.85ZM1.59 161.71V135.87L28.78 127.49V153.33L1.59 161.71ZM28.78 154.3V180.14L1.59 188.52V162.68L28.78 154.3ZM1.59 134.9V109.06L28.78 100.68V126.52L1.59 134.9ZM1.59 108.09V82.25L28.78 73.87V99.71L1.59 108.1V108.09ZM1.59 81.28V55.44L28.78 47.06V72.9L1.59 81.29V81.28ZM1.59 54.48V28.65L28.78 20.27V46.11L1.59 54.49V54.48ZM1.59 189.48L28.78 181.1L16.2 198.56L1.59 189.48ZM17.17 198.56L29.75 181.1H68.56L55.98 198.56H17.17ZM56.95 198.56L69.53 181.1H108.34L95.76 198.56H56.95ZM96.73 198.56L109.31 181.1H148.12L135.54 198.56H96.73ZM136.52 198.56L149.1 181.1H187.91L175.33 198.56H136.52ZM176.3 198.56L188.88 181.1H227.69L215.11 198.56H176.3ZM216.08 198.56L228.66 181.1H267.47L254.89 198.56H216.08ZM255.86 198.56L268.44 181.1H307.25L294.67 198.56H255.86ZM295.64 198.56L308.22 181.1H347.03L334.45 198.56H295.64ZM335.42 198.56L348 181.1H386.81L374.23 198.56H335.42ZM375.2 198.56L387.78 181.1H426.59L414.01 198.56H375.2ZM414.98 198.56L427.56 181.1L453.79 189.48L414.98 198.56ZM453.79 188.51L427.56 180.13V154.29L453.79 162.67V188.51ZM453.79 161.71L427.56 153.33V127.49L453.79 135.87V161.71ZM453.79 134.9L427.56 126.52V100.68L453.79 109.06V134.9ZM453.79 108.09L427.56 99.71V73.87L453.79 82.25V108.09ZM453.79 81.28L427.56 72.9V47.06L453.79 55.44V81.28ZM453.79 54.48L427.56 46.1V20.27L453.79 28.65V54.49V54.48ZM427.56 19.3L414.97 1.84L453.78 27.68L427.55 19.3H427.56Z" fill="#222222"/>
</svg>
