<svg width="457" height="199" viewBox="0 0 457 199" fill="none" xmlns="http://www.w3.org/2000/svg">
<g clip-path="url(#clip0_201_23149)">
<path d="M416.27 0L428.97 17.62H389.8L377.1 0H416.27ZM388.82 44.67H349.65V18.6H388.82V44.67ZM388.82 45.65V71.72H349.65V45.65H388.82ZM388.82 72.7V81.73H374.61C374.45 81.73 374.28 82.04 374.08 82.67C373.88 83.3 373.86 83.61 374.02 83.61H384.6C385.15 83.61 385.34 83.77 385.19 84.08L380.58 98.77H349.65V97.57L356.85 88.43C357.71 87.33 358.44 86.45 359.03 85.78C359.62 85.11 360.09 84.6 360.44 84.25C360.79 83.9 361.09 83.68 361.32 83.6C361.56 83.52 361.75 83.48 361.91 83.48H370.96C371.12 83.48 371.31 83.17 371.55 82.54C371.79 81.91 371.82 81.6 371.67 81.6H349.65V72.69H388.82V72.7ZM301.87 152.88H269.36V126.81H308.53V131.95L301.87 152.88ZM363.59 152.88H349.65V126.81H371.78L363.6 152.88H363.59ZM388.29 126.81H388.82V152.88H380.07L388.29 126.81ZM349.65 125.83V99.76H380.27L372.09 125.83H349.66H349.65ZM348.67 99.76V125.83H327.39L347.93 99.76H348.67ZM326.52 123.95L321.11 99.76H345.5L326.52 123.95ZM310.16 125.84H309.5V122.9L310.16 125.84ZM310.16 126.82L309.5 128.91V126.82H310.16ZM326.7 126.82H348.67V152.89H318.44L326.7 126.82ZM349.65 153.87H363.29L360.5 162.75C360.42 163.06 360.11 163.22 359.56 163.22H349.65V153.87ZM376.96 162.75L379.76 153.87H388.82V162.76C386.66 163.07 384.39 163.23 382.01 163.23H377.54C377.07 163.23 376.87 163.07 376.95 162.76L376.96 162.75ZM388.82 125.84H388.6L388.82 125.15V125.84ZM389.8 153.87H408.77C408.23 154.33 407.69 154.79 407.12 155.23C404.02 157.58 400.38 159.5 396.19 160.99C394.18 161.7 392.05 162.24 389.81 162.61V153.87H389.8ZM349.65 94.47V83.5H357.32C357.56 83.5 357.69 83.54 357.73 83.62C357.77 83.7 357.69 83.91 357.49 84.27C357.29 84.62 356.96 85.11 356.49 85.74C356.02 86.37 355.31 87.27 354.37 88.44L349.64 94.47H349.65ZM348.67 44.68H309.5V18.6H348.67V44.67V44.68ZM348.67 45.66V71.73H309.5V45.66H348.67ZM348.67 72.71V81.62H347.92C347.76 81.62 347.59 81.93 347.39 82.56C347.19 83.19 347.17 83.5 347.33 83.5H348.67V95.72L346.27 98.78H320.9L317.59 83.97C317.51 83.89 317.53 83.79 317.65 83.68C317.77 83.56 317.94 83.5 318.18 83.5H330.88C331.04 83.5 331.21 83.19 331.41 82.56C331.6 81.93 331.63 81.62 331.47 81.62H309.52V72.71H348.69H348.67ZM308.53 44.68H269.36V18.6H308.53V44.67V44.68ZM308.53 45.66V71.73H269.36V45.66H308.53ZM308.53 72.71V81.62H289.72C289.56 81.62 289.39 81.93 289.19 82.56C288.99 83.19 288.97 83.5 289.13 83.5H299.95C300.5 83.5 300.77 83.66 300.77 83.97L304.09 98.78H270.96L275.6 83.97C275.76 83.66 276.07 83.5 276.54 83.5H287.01C287.17 83.5 287.36 83.19 287.6 82.56C287.84 81.93 287.87 81.62 287.72 81.62H269.36V72.71H308.53ZM251.02 125.84L242.37 99.77H268.39V100.6L260.45 125.85H251.03L251.02 125.84ZM260.13 126.82L255.85 140.41L251.34 126.82H260.13ZM269.36 97.48V83.51H273.02C273.57 83.51 273.76 83.67 273.61 83.98L269.36 97.48ZM268.38 44.68H229.21V18.6H268.38V44.67V44.68ZM268.38 45.66V71.73H229.21V45.66H268.38ZM268.38 72.71V81.62H263.03C262.87 81.62 262.7 81.93 262.5 82.56C262.3 83.19 262.28 83.5 262.44 83.5H268.38V98.78H242.04L237.05 83.73C236.58 82.32 235.91 81.61 235.05 81.61H229.22V72.7H268.39L268.38 72.71ZM228.23 44.68H189.06V18.6H228.23V44.67V44.68ZM228.23 45.66V71.73H189.06V45.66H228.23ZM228.23 72.71V81.62H212.23C212.07 81.62 211.88 81.93 211.64 82.56C211.4 83.19 211.36 83.5 211.52 83.5H220.57C221.04 83.5 221.28 83.66 221.28 83.97L216.61 98.78H189.06V83.71C189.23 83.58 189.47 83.5 189.77 83.5H200.24C200.4 83.5 200.59 83.19 200.83 82.56C201.07 81.93 201.1 81.62 200.95 81.62H189.07V72.71H228.24H228.23ZM224.72 98.78H218.53L221.52 89.26L224.72 98.78ZM147.93 126.81V152.88H108.76V126.81H147.93ZM108.76 125.83V99.76H147.93V125.83H108.76ZM148.91 45.65H188.08V71.72H148.91V45.65ZM188.08 99.76V125.83H175.63L183.85 99.76H188.08ZM184.16 98.78L188.08 86.35V98.78H184.16ZM159.05 125.83H148.91V99.76H167.27L159.05 125.83ZM148.91 153.86H150.21L148.91 157.98V153.86ZM147.93 71.72H129.13L147.93 46.17V71.72ZM148.91 152.88V126.81H158.74L150.52 152.88H148.91ZM175.32 126.81H188.08V152.88H167.1L175.32 126.81ZM189.06 153.86H199.24L196.48 162.63C196.4 162.94 196.09 163.1 195.54 163.1H189.07V153.86H189.06ZM189.06 152.88V126.81H207.77L199.55 152.88H189.06ZM189.06 125.83V99.76H216.3L208.08 125.83H189.06ZM161.08 83.5H171.66C172.21 83.5 172.4 83.66 172.25 83.97L167.58 98.78H148.91V72.71H188.08V81.62H161.79C161.63 81.62 161.44 81.93 161.2 82.56C160.96 83.19 160.92 83.5 161.08 83.5ZM188.08 44.68H149.03L151.63 41.14C155.44 35.81 158.1 33.14 159.63 33.14H175.81C176.06 33.14 176.29 32.63 176.48 31.62C176.67 30.61 176.64 30.1 176.38 30.1H148.91V18.61H188.08V44.68ZM148.91 39.56V33.15H151.25C152.26 33.15 152.58 33.56 152.2 34.39C151.88 35.09 150.77 36.82 148.91 39.56ZM147.93 30.1H135.64C135.38 30.1 135.1 30.61 134.78 31.62C134.46 32.64 134.43 33.14 134.68 33.14H147.92V40.98C147.88 41.03 147.85 41.08 147.81 41.14L145.2 44.68H108.74V18.6H147.91V30.09L147.93 30.1ZM144.5 45.66L125.29 71.73H108.77V45.66H144.51H144.5ZM124.56 72.71L108.76 94.15V72.71H124.56ZM80.61 45.66H107.78V71.73H80.61V45.66ZM80.61 126.82H84.69L80.61 132.35V126.82ZM80.61 125.84V99.77H104.62L85.41 125.84H80.61ZM105.35 98.79H80.61V72.72H107.78V95.49L105.35 98.79ZM107.78 44.69H80.61V33.92C80.61 33.41 80.99 33.16 81.75 33.16H96.98C97.23 33.16 97.49 32.65 97.74 31.64C97.99 30.63 97.99 30.12 97.74 30.12H68.61V18.63H107.78V44.7V44.69ZM67.63 30.11H37.3801C37.1201 30.11 36.84 30.62 36.5201 31.63C36.2001 32.65 36.1701 33.15 36.43 33.15H53.57C54.46 33.15 54.9001 33.41 54.9001 33.91V44.68H28.47V18.6H67.64V30.09L67.63 30.11ZM54.9001 45.67V71.74H28.47V45.67H54.91H54.9001ZM54.9001 72.72V98.79H28.47V72.72H54.91H54.9001ZM54.9001 99.77V125.84H28.47V99.77H54.91H54.9001ZM54.9001 126.82V152.89H28.47V126.82H54.91H54.9001ZM54.9001 153.87V167.96C54.9001 168.21 55.41 168.37 56.42 168.44C57.44 168.5 58.07 168.35 58.32 167.96L67.62 155.32V179.94H28.47V153.87H54.91H54.9001ZM68.61 153.99L68.7 153.87H107.78V179.94H68.61V153.99ZM69.42 152.89L88.6 126.82H107.78V152.89H69.42ZM89.32 125.84L107.78 100.75V125.84H89.32ZM128.41 72.71H147.93V98.78H109.23L128.41 72.71ZM108.76 153.87H147.93V161.1L147.44 162.64C147.44 162.95 147.16 163.11 146.62 163.11H136.04C135.88 163.11 135.71 163.44 135.51 164.11C135.32 164.78 135.29 165.11 135.45 165.11H147.93V179.95H108.76V153.88V153.87ZM148.91 165.1H174.72C174.88 165.1 175.03 164.77 175.19 164.1C175.35 163.43 175.35 163.1 175.19 163.1H164.61C164.14 163.1 163.94 162.94 164.02 162.63L166.78 153.86H188.07V163.1H185.06C184.9 163.1 184.71 163.43 184.47 164.1C184.23 164.77 184.2 165.1 184.35 165.1H188.07V179.94H148.9V165.1H148.91ZM189.06 165.1H209.06C209.22 165.1 209.39 164.77 209.59 164.1C209.79 163.43 209.81 163.1 209.65 163.1H199.07C198.6 163.1 198.4 162.94 198.48 162.63L201.23 153.86H228.23V179.93H189.06V165.09V165.1ZM201.53 152.89L209.72 126.82H228.23V152.89H201.53ZM210.03 125.84L218.22 99.77H225.05L228.23 109.22V125.84H210.03ZM233.82 125.84H229.21V112.13L233.82 125.84ZM234.15 126.82L242.92 152.89H229.21V126.82H234.15ZM229.21 153.87H243.25L247.5 166.52C247.66 166.76 248.05 166.85 248.68 166.81C249.31 166.77 249.66 166.67 249.74 166.52L253.7 153.87H268.38V179.94H229.21V153.87ZM254.01 152.89L262.18 126.82H268.38V152.89H254.01ZM262.49 125.84L268.38 107.04V125.84H262.49ZM270.66 99.77H304.31L308.53 118.57V125.84H269.36V103.91L270.66 99.77ZM269.36 153.87H301.56L298.77 162.64C298.77 162.95 298.49 163.11 297.95 163.11H287.37C287.21 163.11 287.04 163.44 286.84 164.11C286.64 164.78 286.62 165.11 286.78 165.11H308.53V179.95H269.36V153.88V153.87ZM309.5 165.1H325.93C326.09 165.1 326.26 164.77 326.46 164.1C326.66 163.43 326.68 163.1 326.52 163.1H315.94C315.47 163.1 315.27 162.94 315.35 162.63L318.13 153.86H348.68V163.57C348.61 163.72 348.53 163.91 348.45 164.16C348.26 164.79 348.23 165.1 348.39 165.1H348.67V179.94H309.5V165.1ZM349.65 165.1H388.82V179.94H349.65V165.1ZM389.8 165.1H412.35C412.59 165.1 412.7 164.98 412.7 164.75L416.18 153.87H428.96V179.94H389.79V165.1H389.8ZM416.5 152.89L421.17 138.29C421.17 138.13 420.86 138.05 420.23 138.05C419.6 138.05 419.25 138.13 419.17 138.29C418.23 141.27 416.76 144.25 414.76 147.23C413.39 149.27 411.75 151.15 409.87 152.89H389.8V126.82H428.97V152.89H416.5ZM389.8 125.84V122.04L396.82 99.77H428.96V125.84H389.79H389.8ZM397.13 98.79L401.76 84.1C401.92 83.79 402.19 83.63 402.58 83.63H413.16C413.32 83.63 413.49 83.32 413.69 82.69C413.89 82.06 413.91 81.75 413.75 81.75H389.79V72.72H428.96V98.79H397.12H397.13ZM389.8 71.74V45.67H428.97V71.74H389.8ZM389.8 44.69V18.6H428.97V44.67H389.8V44.69ZM376.12 0L388.82 17.62H349.65L336.95 0H376.12ZM335.97 0L348.67 17.62H309.5L296.8 0H335.97ZM295.83 0L308.53 17.62H269.36L256.66 0H295.83ZM255.68 0L268.38 17.62H229.21L216.51 0H255.68ZM215.53 0L228.23 17.62H189.06L176.36 0H215.53ZM175.38 0L188.08 17.62H148.91L136.22 0H175.39H175.38ZM135.23 0L147.93 17.62H108.76L96.06 0H135.23ZM95.08 0L107.78 17.62H68.61L55.92 0H95.09H95.08ZM54.94 0L67.64 17.62H28.47L15.77 0H54.94ZM14.79 0L27.49 17.62L0.0500488 26.07L14.79 0ZM0.0500488 161.33V135.26L27.49 126.81V152.88L0.0500488 161.33ZM27.49 153.85V179.92L0.0500488 188.38V162.31L27.49 153.86V153.85ZM0.0500488 134.28V108.21L27.49 99.76V125.83L0.0500488 134.28ZM0.0500488 107.23V81.16L27.49 72.71V98.78L0.0500488 107.23ZM0.0500488 80.18V54.11L27.49 45.66V71.73L0.0500488 80.17V80.18ZM0.0500488 53.12V27.05L27.49 18.6V44.67L0.0500488 53.12ZM0.0500488 189.36L27.49 180.91L14.79 198.53L0.0500488 189.36ZM15.77 198.52L28.47 180.9H67.64L54.94 198.52H15.77ZM55.92 198.52L68.62 180.9H107.79L95.09 198.52H55.92ZM96.07 198.52L108.77 180.9H147.94L135.24 198.52H96.07ZM136.22 198.52L148.92 180.9H188.09L175.39 198.52H136.22ZM176.37 198.52L189.07 180.9H228.24L215.54 198.52H176.37ZM216.52 198.52L229.22 180.9H268.39L255.69 198.52H216.52ZM256.67 198.52L269.37 180.9H308.54L295.84 198.52H256.67ZM296.81 198.52L309.51 180.9H348.68L335.98 198.52H296.81ZM336.96 198.52L349.66 180.9H388.83L376.13 198.52H336.96ZM377.11 198.52L389.81 180.9H428.98L416.28 198.52H377.11ZM417.26 198.52L429.96 180.9L456.43 189.36L417.26 198.52ZM456.43 188.38L429.96 179.92V153.85L456.43 162.31V188.38ZM456.43 161.33L429.96 152.87V126.8L456.43 135.26V161.33ZM456.43 134.28L429.96 125.82V99.75L456.43 108.21V134.28ZM456.43 107.23L429.96 98.77V72.7L456.43 81.16V107.23ZM456.43 80.18L429.96 71.72V45.65L456.43 54.11V80.18ZM456.43 53.13L429.96 44.67V18.6L456.43 27.06V53.13ZM429.96 17.62L417.25 0L456.42 26.07L429.95 17.61L429.96 17.62Z" fill="#222222"/>
</g>
<defs>
<clipPath id="clip0_201_23149">
<rect width="456.1" height="198.52" fill="white"/>
</clipPath>
</defs>
</svg>
