<svg width="180.042" height="254.564" viewBox="0 0 180.042 254.564" xmlns="http://www.w3.org/2000/svg">
<rect width="180.042" height="254.564" fill="#3D9365"/>
<!-- Top half-diamonds (row 0, cut at top) -->
<path d="M90.033 0.048 C90.057 27.835 112.554 45.756 135.05 63.651 C157.546 45.756 180.042 27.835 180.042 0 L90.057 0 L0.024 0 L0.024 0.024 C0.048 27.835 22.545 45.731 45.041 63.651 C67.537 45.756 90.009 27.835 90.033 0.048Z" fill="#348C58"/>
<!-- Full diamond col 0 (x≈45) -->
<path d="M45.041 190.93 C68.142 172.526 90.033 154.389 90.033 125.828 C90.033 98.766 66.908 81.064 45.041 63.651 C21.94 82.055 0.048 100.169 0.024 128.73 L0.024 128.778 C0.048 155.84 23.198 173.518 45.041 190.93Z" fill="#348C58"/>
<!-- Full diamond col 1 (x≈135) -->
<path d="M90.033 128.73 L90.033 128.778 C90.057 155.84 113.183 173.518 135.05 190.93 C158.151 172.526 180.042 154.389 180.042 125.828 C180.042 98.766 156.917 81.064 135.05 63.651 C111.949 82.055 90.033 100.169 90.033 128.73Z" fill="#348C58"/>
<!-- Bottom half-diamonds (will connect to top of next tile) -->
<path d="M45.041 190.954 C21.94 209.358 0.048 227.471 0.024 254.564 L90.033 254.564 C90.033 227.471 66.908 209.358 45.041 190.954Z" fill="#348C58"/>
<path d="M135.05 190.954 C111.949 209.358 90.033 227.471 90.033 254.564 L180.042 254.564 C180.042 227.471 156.917 209.358 135.05 190.954Z" fill="#348C58"/>
</svg>
